<?xml version="1.0" standalone="no"?>
<!DOCTYPE svg PUBLIC "-//W3C//DTD SVG 1.1//EN" "http://www.w3.org/Graphics/SVG/1.1/DTD/svg11.dtd" >
<!--
2013-9-30: Created.
-->
<svg>
<metadata>
Created by iconfont
</metadata>
<defs>

<font id="iconfont" horiz-adv-x="1024" >
  <font-face
    font-family="iconfont"
    font-weight="500"
    font-stretch="normal"
    units-per-em="1024"
    ascent="896"
    descent="-128"
  />
    <missing-glyph />
    
    <glyph glyph-name="weibo1" unicode="&#58948;" d="M667.724691 667.927561c44.154639 0 255.473509 11.467169 216.83756-192.390775-5.399987-22.345937-9.459442-56.574506 17.046235-63.815421 24.14798-6.062066 39.011502 19.130709 45.666062 38.305421 3.188622 22.321378 100.936877 314.472228-276.007171 290.179962-12.046361-2.125407-38.785352-12.417821-38.97364-34.56626C632.104425 683.487955 655.741775 669.065478 667.724691 667.927561zM679.594019 579.472973c7.05058 0.826831 116.910687 20.101827 107.916848-95.749738 1.63422-10.524704-5.819542-28.566616 8.992815-32.268938 14.812357-3.703345 20.630876 8.463766 22.218024 19.572778 1.587148 11.109012 27.215852 161.807223-137.365554 144.41818-12.450567-1.37123-20.807908-8.816806-19.396769-19.74981C663.370523 584.762443 672.54344 578.646142 679.594019 579.472973zM726.18515 399.006785c0 0-44.288692-9.56689-23.384593 23.384593 32.961716 64.451918-20.591991 170.193217-159.439292 99.915617-47.831378-25.51-47.831378-7.440459-46.237067 24.447808 4.300956 174.08485-318.347488 49.957809-409.759431-176.334077-51.543933-137.357368 31.003108-256.060887 158.698418-307.833017 311.643809-111.274316 538.583448 72.812329 577.283866 191.860702C874.931916 433.28959 726.18515 399.006785 726.18515 399.006785zM427.294806 103.804437c-147.530055-20.292162-278.3004 44.50154-292.085358 144.721079s94.637404 197.913559 242.166435 218.205721 278.3004-44.50154 292.085358-144.721079S574.824861 124.096599 427.294806 103.804437zM539.748994 312.676581c-11.707646 61.054541-83.562161 98.591459-160.491251 83.839477S249.455445 320.311469 261.163091 259.256928s83.562161-98.591459 160.491251-83.839477S551.45664 251.62204 539.748994 312.676581zM370.101199 231.732038c-26.561959 0-48.095391 18.326391-48.095391 40.932248 0 22.605857 21.533432 40.932248 48.095391 40.932248 26.561959 0 48.095391-18.326391 48.095391-40.932248C418.196591 250.057405 396.663158 231.732038 370.101199 231.732038zM448.895777 286.990572c-9.912767 0-19.995403 11.912307-19.995403 26.605961 0 14.693654 10.082636 26.605961 19.995403 26.605961 9.912767 0 19.995403-11.912307 19.995403-26.605961C468.89118 298.901857 458.808544 286.990572 448.895777 286.990572z"  horiz-adv-x="1024" />

    
    <glyph glyph-name="ok-circle" unicode="&#58896;" d="M511.9455-62.71280899999999c-247.065724 0-448.054313 200.987589-448.054313 448.060313 0 247.065724 200.987589 448.054313 448.054313 448.054313 247.072724 0 448.060313-200.987589 448.060313-448.054313C960.005813 138.27578000000005 759.017224-62.71280899999999 511.9455-62.71280899999999L511.9455-62.71280899999999zM511.9455 769.106628c-211.60762 0-383.758124-172.150504-383.758124-383.758124 0-211.58062 172.150504-383.765124 383.758124-383.765124 211.58062 0 383.765124 172.184504 383.765124 383.765124C895.709624 596.956124 723.52512 769.106628 511.9455 769.106628L511.9455 769.106628zM511.9455 769.106628M726.94813 504.174852c-12.545037 12.448036-32.837096 12.322036-45.249133-0.254001L448.388314 268.05215999999996l-103.280303 106.122311c-12.350036 12.707037-32.612096 12.932038-45.249133 0.640002-12.678037-12.322036-12.965038-32.612096-0.640002-45.251133l126.032369-129.522379c0.064-0.093 0.190001-0.093 0.254001-0.190001 0.064-0.064 0.097-0.191001 0.161-0.254001 2.017006-1.988006 4.512013-3.204009 6.88102-4.547013 1.250004-0.674002 2.241007-1.793005 3.52001-2.305007 3.873011-1.601005 8.000023-2.398007 12.096035-2.398007 4.063012 0 8.131024 0.796002 11.969035 2.334007 1.250004 0.513002 2.208006 1.539005 3.39401 2.178006 2.398007 1.344004 4.898014 2.525007 6.94502 4.542013 0.063 0.064 0.098 0.196001 0.190001 0.259001 0.064 0.094 0.161 0.128 0.259001 0.191001l256.253751 259.041759C739.626167 471.500756 739.494166 491.757816 726.94813 504.174852L726.94813 504.174852zM726.94813 504.174852"  horiz-adv-x="1025" />

    
    <glyph glyph-name="lifangtilitiduomiantifangkuai" unicode="&#59386;" d="M405.76 417.28 121.6 570.88C115.84 574.08 109.44 575.36 103.68 575.36 83.2 575.36 64 557.44 64 532.48l0-300.16c0-31.36 16-59.52 42.24-73.6l284.16-153.6C396.16 1.92 402.56 0 408.32 0 428.8 0 448 18.56 448 43.52L448 343.68C448 374.4 432 403.2 405.76 417.28zM384 81.28l-247.68 133.76C132.48 217.6 128 223.36 128 232.32l0 262.4 247.68-133.76C380.8 357.76 384 350.72 384 343.68L384 81.28zM856.32 575.36c-5.76 0-12.16-1.28-17.92-4.48L554.24 416.64C528 402.56 512 373.76 512 342.4l0-298.88C512 18.56 531.2 0 551.68 0c5.76 0 12.16 1.28 17.92 4.48l284.16 154.24c25.6 14.08 42.24 42.24 42.24 73.6L896 532.48C896 557.44 876.8 575.36 856.32 575.36zM832 232.96c0-8.96-4.48-15.36-8.32-17.28L576 81.28 576 342.4c0 8.96 4.48 15.36 8.32 17.28L832 494.72 832 232.96zM812.16 641.28c13.44 7.04 19.84 19.2 18.56 30.72 1.28 12.16-5.12 23.68-18.56 30.72L522.88 853.76C510.08 860.8 495.36 864 480 864c0 0 0 0 0 0 0 0 0 0 0 0-15.36 0-30.08-3.2-43.52-10.24L146.56 703.36C133.12 696.32 127.36 684.16 128 672 127.36 660.48 133.12 648.32 146.56 641.28l289.28-150.4c12.8-7.04 28.16-10.24 43.52-10.24 0 0 0 0 0.64 0 0 0 0 0 0.64 0 15.36 0 30.08 3.2 43.52 10.24L812.16 641.28zM479.36 544.64c-5.12 0-10.24 1.28-14.08 3.2L225.92 672l239.36 124.8C469.12 798.72 474.24 800 480 800c5.12 0 10.24-1.28 14.08-3.2l239.36-124.8L493.44 547.84C490.24 545.92 485.12 544.64 479.36 544.64z"  horiz-adv-x="1024" />

    
    <glyph glyph-name="close1" unicode="&#59212;" d="M898.63543088 692.75600847L820.75600847 770.6354308800001 512 461.87942242 203.24399153 770.6354308800001 125.36456912 692.75600847 434.12057758 384 125.36456912 75.24399153000002 203.24399153-2.6354308799999444 512 306.12057758000003 820.75600847-2.6354308799999444 898.63543088 75.24399153000002 589.87942242 384 898.63543088 692.75600847Z"  horiz-adv-x="1024" />

    
    <glyph glyph-name="jia" unicode="&#58930;" d="M791.457164 413.990578 542.361553 413.990578 542.361553 663.086189c0 17.190122-13.94987 31.139992-31.139992 31.139992-17.190122 0-31.139992-13.94987-31.139992-31.139992l0-249.095611L230.985958 413.990578C213.795836 413.990578 199.845966 400.040708 199.845966 382.850586c0-17.190122 13.94987-31.139992 31.139992-31.139992l249.095611 0 0-249.095611c0-17.224179 13.94987-31.139992 31.139992-31.139992 17.190122 0 31.139992 13.915813 31.139992 31.139992L542.361553 351.710594l249.095611 0c17.224179 0 31.139992 13.94987 31.139992 31.139992C822.597156 400.040708 808.681343 413.990578 791.457164 413.990578L791.457164 413.990578zM791.457164 413.990578"  horiz-adv-x="1024" />

    
    <glyph glyph-name="ok-no-circle-m" unicode="&#58911;" d="M416.832 97.91999999999996C400.64 97.91999999999996 384.512 104.12800000000004 372.16 116.48000000000002L119.424 370.24C94.784 395.008 94.784 435.2 119.424 459.968 144.128 484.736 184.128 484.736 208.768 459.968L416.832 251.072 814.4 650.24C839.04 675.072 879.04 675.072 903.744 650.24 928.384 625.472 928.384 585.344 903.744 560.576L461.504 116.48000000000002C449.152 104.12800000000004 432.96 97.91999999999996 416.832 97.91999999999996Z"  horiz-adv-x="1024" />

    
    <glyph glyph-name="jiantou-thin" unicode="&#58905;" d="M767.182378 381.829568L270.625092-70.31623000000002 256.846274-55.18357800000001 736.709343 381.76100599999995 256.880043 814.77814 270.591323 829.971168Z"  horiz-adv-x="1024" />

    
    <glyph glyph-name="date" unicode="&#59056;" d="M346.639 603.516h10.884c16.355 0 22.674 23.698 22.674 40.053v130.721c0 16.355-8.163 34.553-24.487 34.553h-10.884c-16.355 0-23.581-18.198-23.581-34.553v-136.192c0-10.884 9.070-34.582 25.395-34.582zM696.203 603.516h10.884c16.355 0 23.581 23.698 23.581 40.053v130.721c0 16.355-6.32 34.553-22.674 34.553h-10.884c-16.355 0-24.487-18.198-24.487-34.553v-136.192c0-10.884 12.668-34.582 23.581-34.582zM851.471 749.89h-90.931v-57.871h90.931c32.679 0 59.919-32.124 59.919-64.805v-54.477h-768.146v54.477c0 32.679 27.238 64.805 59.919 64.805h89.117v57.871h-83.675c-65.39 0-121.71-68.198-121.71-128.117v-528.443c0-59.919 56.349-132.681 121.71-132.681h648.309c59.919 0 107.081 67.321 107.081 132.681v528.443c-5.413 59.919-47.133 128.117-112.523 128.117zM908.317 98.743c0-38.122-18.695-79.989-56.847-79.989h-642.838c-32.681 0-63.577 41.867-63.577 74.547v424.96h763.29v-419.518zM643.569 749.89h-234.379v-57.871h234.379v57.871z"  horiz-adv-x="1024" />

    
    <glyph glyph-name="ok-no-circle" unicode="&#58918;" d="M414.245926 144.971852l437.57037 453.12c7.300741 7.49037 7.111111 19.531852-0.474074 26.832593-7.49037 7.300741-19.531852 7.111111-26.832593-0.474074L398.506667 183.27703699999995 199.111111 382.672593c-7.395556 7.395556-19.437037 7.395556-26.832593 0l0 0c-7.395556-7.395556-7.395556-19.437037 0-26.832593l212.574815-212.574815c6.731852-6.731852 17.161481-7.300741 24.557037-1.896296C411.211852 142.31703700000003 412.823704 143.45481500000005 414.245926 144.971852z"  horiz-adv-x="1024" />

    
    <glyph glyph-name="bianji1" unicode="&#58920;" d="M934.443 637.281 496.176 199.017l-157.92 0L338.256 356.941 776.523 795.2c6.165 6.165 14.235 9.175 22.315 9.175 8.1 0 16.185-3.01 22.35-9.175l113.255-113.247c6.17-6.17 9.175-14.24 9.175-22.335C943.618 651.546 940.613 643.448 934.443 637.281zM798.858 712.258 417.216 330.622l0-52.65 52.64 0 381.642 381.647L798.858 712.258zM509.339 672.773 180.337 672.773l0-631.676 631.681 0L812.018 370.101c0 21.79 17.665 39.475 39.48 39.475 21.805 0 39.48-17.685 39.48-39.475l0-355.324c0-29.075-23.57-52.645-52.64-52.645L154.017-37.868c-29.07 0-52.64 23.57-52.64 52.645L101.377 699.098c0 29.07 23.57 52.64 52.64 52.64l355.322 0c21.805 0 39.48-17.685 39.48-39.48S531.144 672.773 509.339 672.773z"  horiz-adv-x="1024" />

    
    <glyph glyph-name="jiankong1" unicode="&#58912;" d="M512 593.963c-83.338 0-161.688-32.454-220.617-91.383C232.454 443.652 200 365.302 200 281.964c0-17.673 14.327-32 32-32s32 14.327 32 32c0 66.243 25.796 128.521 72.638 175.362 46.841 46.841 109.119 72.638 175.362 72.638s128.521-25.796 175.362-72.638C734.203 410.485 760 348.207 760 281.964c0-17.673 14.327-32 32-32s32 14.327 32 32c0 83.338-32.454 161.688-91.383 220.617C673.688 561.51 595.338 593.963 512 593.963zM512 738C264.576 738 64 537.424 64 290c0-89.999 26.545-173.796 72.224-244h751.553C933.455 116.204 960 200.001 960 290c0 247.424-200.576 448-448 448z m339.288-628H172.712C143.373 165.187 128 226.772 128 290c0 51.868 10.144 102.15 30.15 149.451 19.337 45.719 47.034 86.792 82.321 122.078 35.286 35.287 76.359 62.983 122.078 82.321C409.85 663.856 460.132 674 512 674c51.868 0 102.15-10.144 149.451-30.15 45.719-19.337 86.792-47.034 122.078-82.321 35.287-35.286 62.983-76.359 82.321-122.078C885.856 392.15 896 341.868 896 290c0-63.228-15.373-124.813-44.712-180zM532.241 309.534a79.753 79.753 0 0 1-29.217-5.529l-69.087 69.087c-12.497 12.499-32.758 12.497-45.255 0.001-12.497-12.497-12.497-32.759 0-45.255l69.088-69.088a79.753 79.753 0 0 1-5.529-29.217c0-44.183 35.817-80 80-80s80 35.817 80 80-35.818 80.001-80 80.001z"  horiz-adv-x="1024" />

    
    <glyph glyph-name="bangzhu" unicode="&#58913;" d="M511.333 832.667c-247.424 0-448-200.576-448-448s200.576-448 448-448 448 200.576 448 448-200.576 448-448 448z m271.529-719.529c-35.286-35.287-76.359-62.983-122.078-82.321-47.3-20.006-97.583-30.15-149.451-30.15-51.868 0-102.15 10.144-149.451 30.15-45.719 19.337-86.792 47.034-122.078 82.321-35.287 35.286-62.983 76.359-82.321 122.078-20.006 47.3-30.15 97.583-30.15 149.451s10.144 102.15 30.15 149.451c19.337 45.719 47.034 86.792 82.321 122.078 35.286 35.287 76.359 62.983 122.078 82.321 47.3 20.006 97.583 30.15 149.451 30.15 51.868 0 102.15-10.144 149.451-30.15 45.719-19.337 86.792-47.034 122.078-82.321 35.287-35.286 62.983-76.359 82.321-122.078 20.006-47.3 30.15-97.583 30.15-149.451s-10.144-102.15-30.15-149.451c-19.337-45.719-47.034-86.792-82.321-122.078zM642.045 610.371c-26.482 39.772-72.632 61.676-129.945 61.676-45.43 0-81.73-14.938-107.891-44.4-21.679-24.415-34.958-57.378-39.469-97.974-3.153-28.378-0.747-50.163-0.462-52.553 2.091-17.549 18.02-30.084 35.56-27.991 17.549 2.09 30.081 18.011 27.991 35.56-0.019 0.161-1.845 16.636 0.52 37.916 2.077 18.688 7.877 44.708 23.717 62.547 13.679 15.406 33.317 22.895 60.034 22.895 35.722 0 62.235-11.462 76.675-33.147 15.268-22.93 14.215-52.064 6.398-70.765-4.475-10.704-25.708-30.276-42.77-46.002-35.924-33.111-73.07-67.349-73.07-108.723v-61.457c0-17.673 14.327-32 32-32s32 14.327 32 32V349.41c0 0.684 0.354 7.103 12.607 21.925 10.498 12.696 25.413 26.444 39.837 39.739 24.981 23.025 48.576 44.774 58.443 68.379 8.323 19.912 11.834 42.319 10.153 64.799-1.794 24.014-9.516 46.877-22.328 66.119zM512.099 193.035m-40 0a40 40 0 1 1 80 0 40 40 0 1 1-80 0Z"  horiz-adv-x="1024" />

    
    <glyph glyph-name="kaiguan" unicode="&#58914;" d="M652.899 706.734c-16.036 7.058-34.761-0.22-41.82-16.258-7.059-16.038 0.221-34.761 16.258-41.819 104.649-46.06 172.27-149.682 172.27-263.991 0-77-29.986-149.392-84.434-203.839s-126.839-84.434-203.839-84.434-149.393 29.986-203.84 84.434c-54.448 54.447-84.433 126.839-84.433 203.839 0 114.963 68.159 218.821 173.642 264.591 16.075 6.975 23.451 25.659 16.477 41.733-6.975 16.075-25.662 23.452-41.734 16.477-128.688-55.837-211.839-182.544-211.839-322.8 0-47.469 9.304-93.535 27.653-136.917 17.717-41.887 43.073-79.499 75.365-111.791 32.292-32.291 69.903-57.647 111.791-75.364 43.383-18.35 89.449-27.653 136.918-27.653 47.468 0 93.535 9.304 136.917 27.653 41.888 17.717 79.499 43.073 111.791 75.364 32.291 32.292 57.647 69.904 75.364 111.791 18.35 43.383 27.653 89.448 27.653 136.917 0.001 139.458-82.493 265.877-210.16 322.067zM512 416.483c17.522 0 31.727 14.205 31.727 31.727V767.772c0 17.522-14.204 31.727-31.727 31.727s-31.727-14.205-31.727-31.727V448.21c0-17.522 14.205-31.727 31.727-31.727z"  horiz-adv-x="1024" />

    
    <glyph glyph-name="shaixuan" unicode="&#58915;" d="M576.111-31.64c-4.956 0-9.922 1.15-14.485 3.467l-128.026 65a32 32 0 0 0-17.513 28.533V398.317L165.184 649.221a32 32 0 0 0 22.627 54.627h640.857a32 32 0 0 0 22.627-54.627L608.112 406.037V0.36a31.997 31.997 0 0 0-32.001-32z m-96.024 116.642l64.025-32.507V419.292a31.996 31.996 0 0 0 9.373 22.627l197.928 197.929H265.066L470.714 434.2a32.001 32.001 0 0 0 9.373-22.627v-326.571z"  horiz-adv-x="1024" />

    
    <glyph glyph-name="gouwuche-01" unicode="&#58892;" d="M945.993 679.752c-0.396 0.107-0.794 0.175-1.19 0.257-1.056 0.262-2.278 0.43-3.534 0.467 2.74-0.3 2.638-0.287 2.535-0.271-1.065 0.202-2.29 0.318-3.542 0.318l-714.188-0-36.788 136.609c-2.754 10.223-12.952 16.428-23.186 14.397h-127.087c-11.046 0-20-8.955-20-20s8.954-20 20-20h115.743l180.229-669.247c-36.819-13.428-63.108-48.75-63.108-90.216 0-53.021 42.98-96 96-96 53.019 0 96 42.979 96 96 0 20.884-6.672 40.206-17.996 55.963h255.152c-11.323-15.756-17.995-35.079-17.995-55.963 0-53.021 42.979-96 96-96 53.020 0 96 42.979 96 96 0 49.541-37.526 90.312-85.703 95.448v0.515h-7.668c-0.874 0.022-1.75 0.036-2.629 0.036s-1.755-0.014-2.629-0.036h-401.549l-23.831 88.492h475.971c9.865 0 18.043 7.15 19.682 16.547l3.171 14.666c0.031 0.108 0.074 0.21 0.104 0.318l109.617 405.658c0.142 0.526 0.251 1.052 0.346 1.578l0.184-0.049c2.873 10.666-3.444 21.641-14.111 24.513zM777.569 88.030h2.936c30.247-0.78 54.532-25.526 54.532-55.963 0-30.929-25.072-56-56-56s-56 25.071-56 56c0 30.437 24.285 55.183 54.532 55.963zM367.135 88.048c0.122-0.002 0.241-0.019 0.364-0.019h1.845c30.247-0.779 54.532-25.525 54.532-55.962 0-30.929-25.072-56-56-56s-56 25.071-56 56c0 30.68 24.674 55.583 55.259 55.981zM811.341 258.487c-0.398-1.421-0.649-3.062-0.697-4.754l-470.387 2.79-103.41 384h677.73l-103.236-382.036z"  horiz-adv-x="1024" />

    
    <glyph glyph-name="close" unicode="&#58883;" d="M21.333333 896v-1024M42.666667 896v-1024M64 896v-1024M85.333333 896v-1024M106.666667 896v-1024M128 896v-1024M149.333333 896v-1024M170.666667 896v-1024M192 896v-1024M213.333333 896v-1024M234.666667 896v-1024M256 896v-1024M277.333333 896v-1024M298.666667 896v-1024M320 896v-1024M341.333333 896v-1024M362.666667 896v-1024M384 896v-1024M405.333333 896v-1024M426.666667 896v-1024M448 896v-1024M469.333333 896v-1024M490.666667 896v-1024M512 896v-1024M533.333333 896v-1024M554.666667 896v-1024M576 896v-1024M597.333333 896v-1024M618.666667 896v-1024M640 896v-1024M661.333333 896v-1024M682.666667 896v-1024M704 896v-1024M725.333333 896v-1024M746.666667 896v-1024M768 896v-1024M789.333333 896v-1024M810.666667 896v-1024M832 896v-1024M853.333333 896v-1024M874.666667 896v-1024M896 896v-1024M917.333333 896v-1024M938.666667 896v-1024M960 896v-1024M981.333333 896v-1024M1002.666667 896v-1024M0 874.666667h1024M0 853.333333h1024M0 832h1024M0 810.666667h1024M0 789.333333h1024M0 768h1024M0 746.666667h1024M0 725.333333h1024M0 704h1024M0 682.666667h1024M0 661.333333h1024M0 640h1024M0 618.666667h1024M0 597.333333h1024M0 576h1024M0 554.666667h1024M0 533.333333h1024M0 512h1024M0 490.666667h1024M0 469.333333h1024M0 448h1024M0 426.666667h1024M0 405.333333h1024M0 384h1024M0 362.666667h1024M0 341.333333h1024M0 320h1024M0 298.666667h1024M0 277.333333h1024M0 256h1024M0 234.666667h1024M0 213.333333h1024M0 192h1024M0 170.666667h1024M0 149.333333h1024M0 128h1024M0 106.666667h1024M0 85.333333h1024M0 64h1024M0 42.666667h1024M0 21.333333h1024M0 0h1024M0-21.333333h1024M0-42.666667h1024M0-64h1024M0-85.333333h1024M0-106.666667h1024M810 622L572 384l238-238-60-60L512 324 274 86l-60 60L452 384 214 622l60 60L512 444l238 238z"  horiz-adv-x="1024" />

    
    <glyph glyph-name="sousuo" unicode="&#58947;" d="M916.33 36.24L678.51 274.06A318.92 318.92 0 0 1 768 496c0 176.73-143.27 320-320 320S128 672.73 128 496s143.27-320 320-320a318.48 318.48 0 0 1 167.88 47.55l243.88-243.88a40 40 0 1 1 56.57 56.57zM192 496c0 141.38 114.62 256 256 256s256-114.62 256-256-114.62-256-256-256-256 114.62-256 256z"  horiz-adv-x="1024" />

    
    <glyph glyph-name="changyongfenlei" unicode="&#58941;" d="M361.411765 785.573647H120.470588c-41.517176 0-75.294118-33.776941-75.294117-75.294118v-240.941176c0-41.517176 33.776941-75.294118 75.294117-75.294118h240.941177c41.517176 0 75.294118 33.776941 75.294117 75.294118v240.941176c0 41.517176-33.776941 75.294118-75.294117 75.294118z m45.17647-316.235294c0-24.907294-20.269176-45.176471-45.17647-45.176471H120.470588c-24.907294 0-45.176471 20.269176-45.17647 45.176471v240.941176c0 24.907294 20.269176 45.176471 45.17647 45.176471h240.941177c24.907294 0 45.176471-20.269176 45.17647-45.176471v-240.941176zM361.411765 288.632471H120.470588c-41.517176 0-75.294118-33.776941-75.294117-75.294118v-240.941177c0-41.517176 33.776941-75.294118 75.294117-75.294117h240.941177c41.517176 0 75.294118 33.776941 75.294117 75.294117v240.941177c0 41.517176-33.776941 75.294118-75.294117 75.294118z m45.17647-316.235295c0-24.907294-20.269176-45.176471-45.17647-45.17647H120.470588c-24.907294 0-45.176471 20.269176-45.17647 45.17647v240.941177c0 24.907294 20.269176 45.176471 45.17647 45.176471h240.941177c24.907294 0 45.176471-20.269176 45.17647-45.176471v-240.941177zM984.154353 660.615529L812.122353 832.662588c-14.170353 14.170353-33.069176 21.985882-53.232941 21.985883s-39.062588-7.815529-53.232941-21.985883L533.624471 660.615529c-14.170353-14.170353-21.985882-33.069176-21.985883-53.232941s7.815529-39.062588 21.985883-53.232941L705.656471 382.102588c14.170353-14.170353 33.069176-21.985882 53.232941-21.985882s39.062588 7.815529 53.232941 21.985882l172.047059 172.047059a75.354353 75.354353 0 0 1-0.015059 106.465882z m-21.293177-85.172705L790.829176 403.395765c-16.971294-16.971294-46.908235-16.971294-63.879529 0L554.917647 575.442824c-8.478118 8.478118-13.161412 19.817412-13.161412 31.939764s4.683294 23.461647 13.161412 31.939765L726.934588 811.369412c8.478118 8.478118 19.817412 13.161412 31.939765 13.161412s23.461647-4.683294 31.939765-13.161412L962.861176 639.322353a45.206588 45.206588 0 0 0 0-63.879529zM858.352941 288.632471H617.411765c-41.517176 0-75.294118-33.776941-75.294118-75.294118v-240.941177c0-41.517176 33.776941-75.294118 75.294118-75.294117h240.941176c41.517176 0 75.294118 33.776941 75.294118 75.294117v240.941177c0 41.517176-33.776941 75.294118-75.294118 75.294118z m45.176471-316.235295c0-24.907294-20.269176-45.176471-45.176471-45.17647H617.411765c-24.907294 0-45.176471 20.269176-45.176471 45.17647v240.941177c0 24.907294 20.269176 45.176471 45.176471 45.176471h240.941176c24.907294 0 45.176471-20.269176 45.176471-45.176471v-240.941177z"  horiz-adv-x="1024" />

    
    <glyph glyph-name="sort_icon" unicode="&#58984;" d="M381.17 882.79c-2.415 0.761-5.191 1.2-8.071 1.2-9.597 0-18.056-4.873-23.036-12.281l-222.283-333.419c-3.073-4.407-4.911-9.874-4.911-15.771 0-15.342 12.438-27.78 27.78-27.78 9.751 0 18.328 5.024 23.285 12.624l171.395 257.107v-852.69c-0.003-0.157-0.005-0.342-0.005-0.527 0-15.342 12.438-27.78 27.78-27.78 15.342 0 27.78 12.438 27.78 27.78 0 0.185-0.002 0.37-0.005 0.555l0 944.402c-0.001 12.463-8.209 23.009-19.514 26.527zM888.51 268.22c-4.33 2.925-9.667 4.669-15.412 4.669-9.597 0-18.057-4.868-23.045-12.27l-171.393-257.099v852.69c-0.296 15.114-12.618 27.253-27.775 27.253s-27.479-12.139-27.775-27.225l-0-944.458c0.002-12.466 8.215-23.012 19.524-26.528 2.589-0.807 5.341-1.242 8.195-1.242 0.021 0 0.043 0 0.064 0-0.001-0 0.002-0 0.005-0 9.593 0 18.050 4.864 23.039 12.261l222.283 333.429c2.925 4.33 4.67 9.666 4.67 15.41 0 9.6-4.873 18.062-12.281 23.047z"  horiz-adv-x="1024" />

    
    <glyph glyph-name="daohang" unicode="&#58923;" d="M898.8 617.6H152.8a32 32 0 0 0 0 64h746a32 32 0 0 0 0-64zM898.8 348.592H152.8a32 32 0 0 0 0 64h746a32 32 0 0 0 0-64zM898.8 79.6H152.8a32 32 0 0 0 0 64h746a32 32 0 0 0 0-64z"  horiz-adv-x="1024" />

    
    <glyph glyph-name="loading" unicode="&#59022;" d="M249.457 894.044c57.374 0 103.874-46.51 103.874-103.885 0-57.364-46.51-103.874-103.874-103.874s-103.885 46.51-103.885 103.874c0 57.375 46.51 103.885 103.885 103.885zM98.13 642.857c52.971 0 95.908-42.926 95.908-95.898 0-52.981-42.937-95.907-95.908-95.907S2.222 493.978 2.222 546.959c0 52.972 42.936 95.898 95.908 95.898zM100.465 382.822c48.568 0 87.94-39.372 87.94-87.951 0-48.558-39.372-87.93-87.94-87.93s-87.941 39.372-87.941 87.93c-0.01 48.579 39.362 87.951 87.94 87.951zM209.818 178.248c44.165 0 79.974-35.8 79.974-79.985 0-44.155-35.81-79.985-79.974-79.985-44.176 0-79.985 35.82-79.985 79.985 0 44.186 35.81 79.985 79.985 79.985zM375.47 52.705c39.762 0 72.018-32.235 72.018-72.018 0-39.772-32.246-72.007-72.018-72.007s-72.018 32.235-72.018 72.007c0 39.783 32.236 72.018 72.018 72.018zM556.442 5.94c35.369 0 64.04-28.683 64.04-64.052s-28.671-64.051-64.04-64.051c-35.37 0-64.041 28.682-64.041 64.051s28.672 64.051 64.04 64.051zM724.357 24.433c30.976 0 56.085-25.109 56.085-56.085 0-30.955-25.099-56.074-56.085-56.074-30.955 0-56.074 25.108-56.074 56.074 0.01 30.976 25.119 56.085 56.074 56.085zM862.444 91.525c26.583 0 48.117-21.545 48.117-48.107S889.016-4.7 862.444-4.7c-26.563 0-48.098 21.545-48.098 48.118s21.535 48.107 48.098 48.107zM962.99 189.635c22.17 0 40.14-17.982 40.14-40.151s-17.97-40.152-40.14-40.152-40.151 17.982-40.151 40.152 17.981 40.15 40.151 40.15zM1024.256 303.688c17.766 0 32.184-14.398 32.184-32.185 0-17.766-14.407-32.174-32.184-32.174-17.777 0-32.184 14.398-32.184 32.174 0.01 17.787 14.407 32.185 32.184 32.185zM1048.463 421.56c13.374 0 24.197-10.844 24.197-24.207s-10.833-24.207-24.197-24.207c-13.383 0-24.217 10.844-24.217 24.207s10.834 24.207 24.217 24.207z"  horiz-adv-x="1076" />

    
    <glyph glyph-name="jiantou-left-normal" unicode="&#58882;" d="M765.824 775.552L708.28800001 833.088 257.664 382.4 259.648 380.544 259.264 380.15999999999997 701.312-61.82400000999996 759.296-3.9039999999999964 372.864 382.592Z"  horiz-adv-x="1024" />

    
    <glyph glyph-name="loading1" unicode="&#59206;" d="M511.625 833.25c-244.781 0-443.869-195.638-449.494-439.069C67.325 606.6 228.837 777.037 427.325 777.037c201.75 0 365.325-176.156 365.325-393.413 0-46.556 37.744-84.319 84.3-84.319 46.537 0 84.3 37.763 84.3 84.319 0 248.325-201.3 449.625-449.625 449.625z m0-899.25c244.781 0 443.869 195.638 449.475 439.069-5.175-212.4-166.688-382.875-365.175-382.875-201.75 0-365.325 176.175-365.325 393.431 0 46.538-37.762 84.3-84.319 84.3-46.519 0-84.281-37.744-84.281-84.3C62 135.3 263.3-66 511.625-66z"  horiz-adv-x="1024" />

    
    <glyph glyph-name="triangle-down" unicode="&#58992;" d="M234.88884163 518.52193155l279.65492248-279.65492248 278.8075161 278.8075161z"  horiz-adv-x="1024" />

    
    <glyph glyph-name="triangle-left" unicode="&#58993;" d="M646.52193155 661.11115837l-279.65492248-279.65492248 278.8075161-278.8075161z"  horiz-adv-x="1024" />

    
    <glyph glyph-name="hengxian" unicode="&#58917;" d="M288.064 463.744h484.032v-79.232H288.064z"  horiz-adv-x="1024" />

    
    <glyph glyph-name="xiala" unicode="&#58959;" d="M512 675.7l-83.3-83.4L12 175.70000000000005l83.3-83.4L512 509l416.7-416.7 83.3 83.4-416.7 416.6z"  horiz-adv-x="1024" />

    
    <glyph glyph-name="jiantou-normal" unicode="&#58924;" d="M310.272 12.11733300000003a42.666667 42.666667 0 0 1 62.122667-58.538666L745.813333 349.866667a68.266667 68.266667 0 0 1 0 93.610666L372.394667 839.936a42.666667 42.666667 0 0 1-62.122667-58.538667L672.768 396.8 310.272 12.11733300000003z"  horiz-adv-x="1024" />

    
    <glyph glyph-name="triangle-right" unicode="&#58880;" d="M377.47806845 106.88884163l279.65492248 279.65492248-278.8075161 278.8075161z"  horiz-adv-x="1024" />

    
    <glyph glyph-name="lajixiang" unicode="&#58888;" d="M170.667-14.222A113.778 113.778 0 0 1 284.444-128h455.112a113.778 113.778 0 0 1 113.777 113.778V668.444H170.667v-682.666zM910.222 839.11h-199.11L654.221 896H369.778l-56.89-56.889h-199.11v-113.778h796.444V839.111z"  horiz-adv-x="1024" />

    
    <glyph glyph-name="ok-no-circle-l" unicode="&#59133;" d="M912 570.9c0-13.8-4.8-25.5-14.4-35.1L523.9 162.10000000000002l-70.3-70.3c-9.6-9.6-21.4-14.4-35.1-14.4-13.8 0-25.5 4.8-35.1 14.4l-70.3 70.3-186.7 186.8c-9.6 9.6-14.4 21.4-14.4 35.1 0 13.8 4.8 25.5 14.4 35.1l70.3 70.3c9.6 9.6 21.4 14.4 35.1 14.4 13.8 0 25.5-4.8 35.1-14.4L418.6 337l338.5 339.1c9.6 9.6 21.4 14.4 35.1 14.4 13.8 0 25.5-4.8 35.1-14.4l70.3-70.3c9.5-9.5 14.4-21.2 14.4-34.9z"  horiz-adv-x="1024" />

    
    <glyph glyph-name="jiantou_qiehuanyou_o" unicode="&#60301;" d="M977.43541388 384l-247.44667548-247.44667549-41.24111306 41.24111305 206.20556247 206.20556244H-18.24287605v58.91587557h1054.59416414l-58.91587421-58.91587557z"  horiz-adv-x="1024" />

    
    <glyph glyph-name="jiantou_qiehuanzuo_o" unicode="&#60304;" d="M170.666667 418.133333L349.866667 597.333333l29.866666-29.866666-149.333333-149.333334h669.866667v-42.666666H128l42.666667 42.666666z"  horiz-adv-x="1024" />

    
    <glyph glyph-name="weixin" unicode="&#58926;" d="M669.3 526.6c9.8 0 19.6 0 29.4-1.6C671 650.8 536.9 744 383.2 744 211.6 744 71 626.3 71 479.2c0-85 45.8-156.9 124.2-210.9l-31.1-93.2L273.6 229c39.2-8.2 70.3-16.3 109.5-16.3 9.8 0 19.6 0 31.1 1.6-6.5 21.3-9.8 42.5-9.8 65.4 0.1 135.7 116.2 246.9 264.9 246.9z m-168.4 85c24.5 0 39.2-16.3 39.2-39.2 0-22.9-16.3-39.2-39.2-39.2-24.5 0-47.4 16.4-47.4 39.2 0 24.5 24.6 39.2 47.4 39.2z m-216.3-73.1c-24.7 0-47.8 16.2-47.8 38.8 0 24.3 24.7 38.8 47.8 38.8s39.5-16.2 39.5-38.8c0.1-22.7-16.4-38.8-39.5-38.8zM953.8 283c0 125.9-124.2 227.2-264.8 227.2-148.8 0-266.5-103-266.5-227.2 0-125.9 117.7-227.2 266.5-227.2 31.1 0 62.1 8.2 93.2 16.3l85-47.4-22.9 78.5c62.1 47.4 109.5 109.5 109.5 179.8z m-351.5 39.2c-14.7 0-31.1 14.7-31.1 31.1 0 14.7 16.3 31.1 31.1 31.1 22.9 0 39.2-16.3 39.2-31.1 0-16.4-14.7-31.1-39.2-31.1z m178 7.6c-14.8 0-31.3 14.6-31.3 30.7 0 14.6 16.5 30.7 31.3 30.7 23.1 0 39.5-16.2 39.5-30.7 0-16.2-16.4-30.7-39.5-30.7z"  horiz-adv-x="1024" />

    
    <glyph glyph-name="triangle-up" unicode="&#58881;" d="M789.11115837 249.47806845000002l-279.65492248 279.65492248-278.8075161-278.8075161z"  horiz-adv-x="1024" />

    
    <glyph glyph-name="qq" unicode="&#59008;" d="M173.056-51.712c0-41.984 73.728-76.288 164.352-76.288S501.76-93.696 501.76-51.712s-73.728 76.288-164.352 76.288-164.352-33.792-164.352-76.288zM521.728-51.712c0-41.984 73.728-76.288 164.352-76.288 91.136 0 164.352 34.304 164.352 76.288s-73.728 76.288-164.352 76.288c-90.624 0.512-164.352-33.792-164.352-76.288zM878.08 389.12l-36.864 118.784C840.704 894.464 528.384 896 512 896c-16.896 0-328.704-1.536-328.704-388.096L145.92 389.12s-125.44-157.696-40.96-294.912c9.728-6.656 10.24-30.72 61.44 77.312 0 0 68.608-241.664 343.552-243.712h3.072c274.944 2.048 343.552 243.712 343.552 243.712 51.2-108.032 52.224-86.016 61.44-77.312 85.504 137.216-39.936 294.912-39.936 294.912zM526.336 641.536c0-51.712 29.696-93.696 66.56-93.696s66.56 41.984 66.56 93.696c0 51.712-29.696 93.696-66.56 93.696-36.864-0.512-66.56-41.984-66.56-93.696zM355.328 641.536c0-51.712 29.696-93.696 66.56-93.696s66.56 41.984 66.56 93.696c0 51.712-29.696 93.696-66.56 93.696-36.352-0.512-66.56-41.984-66.56-93.696zM414.72 641.536c0-22.016 12.8-40.448 28.672-40.448 15.872 0 28.672 17.92 28.672 40.448s-12.8 40.448-28.672 40.448c-15.872-0.512-28.672-18.432-28.672-40.448zM781.312 429.056c-113.152-94.208-269.312-83.456-269.312-83.456s-156.672-10.752-269.312 83.456c0 0-107.52-484.864 269.312-484.864s269.312 484.864 269.312 484.864zM840.704 507.904s-90.112-161.792-328.704-161.792-328.704 161.792-328.704 161.792C144.896 403.968 145.92 389.12 145.92 389.12c36.864-40.96 80.896-74.752 129.536-99.84-3.072-34.816-7.68-88.064-7.168-115.2 0.512-42.496 26.624-45.056 86.528-51.2 59.904-5.632 47.616 10.24 47.616 37.376V245.76c63.488-12.288 109.056-7.68 109.056-7.68s208.896-21.504 366.08 152.064c0.512-1.024 1.536 13.824-36.864 117.76zM687.616 488.448c-53.76 25.6-140.8 33.792-175.616 33.792s-121.856-8.192-175.616-33.792c-25.6-8.704-35.84-15.36-35.84-24.064 0-1.024 1.024-2.56 2.56-4.096 50.176-31.232 125.44-51.2 209.408-51.2s159.232 19.968 209.408 51.2c1.536 2.048 2.56 3.072 2.56 4.096-0.512 8.704-10.752 15.36-36.864 24.064z"  horiz-adv-x="1024" />

    
    <glyph glyph-name="right-s" unicode="&#58919;" d="M292.9664 731.8528v-695.808c0-40.1408 48.5376-60.3136 77.0048-31.8464L717.824 352.1536c17.6128 17.6128 17.6128 46.1824 0 63.7952L369.9712 763.8016c-28.4672 28.3648-77.0048 8.2944-77.0048-31.9488z"  horiz-adv-x="1024" />

    
    <glyph glyph-name="jiantou-bold" unicode="&#59104;" d="M752.64 419.84l-358.4 358.4c-20.48 20.48-51.2 20.48-71.68 0-20.48-20.48-20.48-51.2 0-71.68l322.56-322.56-322.56-322.56c-20.48-20.48-20.48-51.2 0-71.68 20.48-20.48 51.2-20.48 71.68 0l358.4 358.4h5.12c10.24 10.24 15.36 25.6 15.36 35.84-5.12 15.36-10.24 25.6-20.48 35.84z"  horiz-adv-x="1024" />

    
    <glyph glyph-name="changjiantou" unicode="&#58885;" d="M-0.512 370.688c0-1.53600001 0-3.072 0.512-5.12 1.024-6.144 4.608-11.776 9.216-15.36l258.048-258.048c10.24-10.24 26.112-10.24 36.352 0s10.24 26.112 0 36.352l-216.576 216.576 912.384 0c13.312 0 24.576 11.264 24.576 25.6s-10.752 25.6-24.576 25.6l-912.384 0 216.576 216.576c10.24 10.24 10.24 26.112 0 36.352-5.12 5.12-11.776 7.67999999-17.92 7.68s-13.312-2.56-17.92-7.68L9.728 391.168c-4.608-3.584-8.192-9.216-9.216-15.36-1.024-2.048-1.024-3.584-1.024-5.12z"  horiz-adv-x="1024" />

    
    <glyph glyph-name="wechat" unicode="&#58884;" d="M985.788632 294.480842c-21.665684 0-43.493053 21.935158-43.493053 44.355369 0 22.096842 21.827368 44.355368 43.493053 44.355368 32.875789 0 54.864842-22.204632 54.864842-44.355368 0-22.420211-21.989053-44.355368-54.864842-44.355369m-240.963369 0c-21.827368 0-43.816421 21.935158-43.816421 44.355369 0 22.096842 21.989053 44.355368 43.816421 44.355368 33.145263 0 54.810947-22.204632 54.810948-44.355368 0-22.420211-21.665684-44.355368-54.810948-44.355369m120.832 266.455579c-208.464842 0-372.628211-144.599579-372.62821-321.967158 0-177.690947 164.163368-321.967158 372.62821-321.967158 43.654737 0 87.578947 11.156211 131.449263 22.258527l120.185263-66.613895-32.983578 110.861474c87.902316 66.829474 153.438316 155.432421 153.438315 255.461052 0 177.313684-175.265684 321.967158-372.089263 321.967158M295.774316 594.189474c-32.875789 0-65.967158 22.204632-65.967158 55.511579 0 33.414737 33.145263 55.349895 65.967158 55.349894 32.875789 0 54.703158-21.989053 54.703158-55.349894 0-33.306947-21.881263-55.511579-54.703158-55.511579m306.607158 110.861473c32.983579 0 54.864842-21.989053 54.864842-55.349894 0-33.306947-21.881263-55.511579-54.864842-55.511579-32.875789 0-65.751579 22.204632-65.751579 55.511579 0 33.414737 32.875789 55.349895 65.751579 55.349894m235.52-120.293052c14.228211 0 28.240842-1.077895 42.199579-2.640842C842.213053 760.885895 653.473684 893.736421 438.056421 893.736421 197.254737 893.736421 0 727.525053 0 516.419368c0-121.909895 65.589895-221.884632 175.265684-299.546947l-43.816421-133.443368 153.168842 77.770105c54.810947-10.994526 98.735158-22.312421 153.438316-22.312421 13.743158 0 27.378526 0.700632 40.96 1.778526a333.824 333.824 0 0 0-13.581474 92.968421c0 193.805474 164.378947 351.124211 372.466527 351.124211"  horiz-adv-x="1239" />

    
    <glyph glyph-name="weibo" unicode="&#58886;" d="M970.805895 402.593684c-18.108632 5.389474-30.612211 9.054316-21.072842 32.336842 20.587789 50.768842 22.689684 94.531368 0.431158 125.574737-41.930105 58.421895-156.456421 55.242105-287.905685 1.562948 0 0-41.229474-17.677474-30.61221 14.282105 20.210526 63.434105 17.192421 116.682105-14.336 147.456-71.410526 69.793684-260.796632-2.694737-423.289263-161.522527C72.326737 443.338105 1.616842 317.170526 1.616842 208.195368c0-208.626526 273.785263-335.279158 541.264842-335.279157 350.962526 0 584.380632 199.356632 584.380632 357.483789 0 95.393684-82.297263 149.773474-156.456421 172.193684zM543.582316-52.547368c-213.746526-20.641684-398.012632 73.835789-411.917474 210.890105-13.904842 137.054316 148.102737 264.838737 361.633684 285.480421 213.692632 20.587789 398.012632-73.620211 411.917474-210.728421 13.904842-137.269895-147.887158-265.054316-361.633684-285.642105zM1204.008421 784.060632C1119.178105 875.843368 994.196211 910.928842 878.753684 886.945684a48.343579 48.343579 0 0 1-37.995789-57.344 49.421474 49.421474 0 0 1 58.637473-37.133473c82.081684 16.976842 170.846316-7.922526 231.100632-73.189053a233.364211 233.364211 0 0 0 50.768842-232.178526 47.966316 47.966316 0 0 1 31.797895-60.739369 49.583158 49.583158 0 0 1 62.086737 31.043369v0.215579a327.194947 327.194947 0 0 1-71.141053 326.440421M1073.744842 669.426526a169.229474 169.229474 0 0 1-158.342737 50.122106 41.660632 41.660632 0 0 1-32.714105-49.421474 42.576842 42.576842 0 0 1 50.553263-31.959579 82.243368 82.243368 0 0 0 77.446737-24.468211c20.156632-21.935158 25.492211-51.631158 16.922947-77.662315a41.498947 41.498947 0 0 1 27.324632-52.33179c22.258526-7.006316 46.349474 4.958316 53.571368 26.73179a159.528421 159.528421 0 0 1-34.762105 158.989473M564.924632 338.189474c-101.753263 25.869474-216.495158-23.498105-260.796632-111.184842-44.948211-89.249684-1.401263-188.469895 101.322105-220.914527 106.388211-33.522526 231.747368 17.946947 275.402106 114.256842 43.115789 94.423579-10.725053 191.380211-115.927579 217.896421zM487.208421 110.376421c-20.641684-32.175158-64.889263-46.457263-98.304-31.474526-32.875789 14.713263-42.630737 52.116211-21.773474 83.375158 20.372211 31.258947 63.272421 45.271579 96.202106 31.690105 33.630316-13.797053 44.247579-50.984421 23.875368-83.536842z m68.122947 85.423158c-7.383579-12.449684-23.875368-18.593684-36.810105-13.365895-12.773053 5.227789-16.707368 19.024842-9.539368 31.258948 7.437474 12.234105 23.444211 18.108632 35.947789 13.150315 12.934737-4.311579 17.623579-18.593684 10.401684-31.043368z"  horiz-adv-x="1293" />

    
    <glyph glyph-name="smg-logo" unicode="&#58893;" d="M2.001364 234.805327l344.327621 0.093087c7.586564-47.567292 23.271669-83.824553 46.822599-108.771783 38.351711-40.259988 93.226308-60.320167 164.391073-60.320168 53.199036 0 108.632153 10.332621 137.395937 30.811691 28.763783 20.618699 43.099132 44.402345 43.099132 71.490568 0 25.319576-13.590655 48.172356-40.818509 68.511795-27.227853 20.246352-91.131858 39.468751-191.758556 57.434481-164.76342 30.485887-329.061406 70.745875-399.248762 120.919594C35.466024 464.543248 0 528.261079 0 605.988455 0 656.674151 17.686469 705.17231 54.36262 750.086632c41.423572 50.871869 117.475387 87.501477 210.282805 114.450071C338.742421 885.993182 437.041953 896 563.779465 896c155.501295 0 273.90755-19.780919 355.358392-66.789691 81.450843-47.055316 169.464297-141.957184 184.963229-244.445616l-365.22558-0.279261c-9.401754 44.355802-22.852779 69.349575-52.175083 90.666425-34.209354 24.94723-80.28726 36.722694-133.346666 36.722694-43.657652 0-120.407618 1.303213-164.76342-22.294259-23.644016-12.520158-41.097768-34.209354-41.097768-55.61929 0-15.824735 5.585201-32.114904 27.320939-43.145675 19.548202-9.820645 106.677333-25.08686 172.908505-36.350348 164.251443-28.71724 281.773374-57.85337 352.751965-87.501477 70.885505-29.508477 122.502068-66.091541 154.803146-109.70265a240.629062 240.629062 0 0 0 48.405072-146.564975c0-63.624744-21.503023-122.129721-64.509068-175.654561-43.099132-53.52484-103.140039-94.017545-180.355438-121.617744-77.215399-27.6002-174.816781-41.377028-292.431798-41.377029-206.652425 0-349.726649 32.394164-429.315759 97.275579-79.58911 64.788328-124.596518 165.694287-135.068769 265.483205zM1194.022817 896h496.012363l188.45398-585.142857L2068.153266 896h492.987046v-1023.767283h-307.698014V589.977546l-237.650289-717.698286h-277.863733l-236.114358 717.698286v-717.698286h-307.791101V896zM3328.779601 248.163265V453.372847H3909.640471v-422.287715c-111.23858-61.437207-209.445025-103.326212-294.945139-125.667015-85.45357-22.201173-186.778419-33.371574-303.834917-33.371574-144.191264 0-261.666652 20.013636-352.426162 59.994364-90.852598 39.934185-161.226126 99.509659-211.167129 178.679878-49.987546 79.123676-74.934776 170.208991-74.934775 273.2094 0 108.16672 27.274397 202.277351 82.009363 282.238807 54.64188 79.914913 134.603336 140.467797 240.070542 181.658652C3076.654334 879.942548 3187.380937 896 3326.405891 896c134.23099 0 234.764602-9.867188 301.368119-29.508477a467.66747 467.66747 0 0 0 169.510841-91.969638c50.778783-43.006045 106.491159-134.696423 112.35562-210.655152h-330.178447c-14.893868 37.048498-51.197673 65.253761-87.40839 83.964184-40.027271 20.665242-104.815599 31.602927-159.922913 31.602927-82.148993 0-161.133039-23.411299-209.910458-70.140812-48.823963-46.822599-73.166129-120.593791-73.166129-221.453207 0-107.654743 24.66797-184.404709 74.143539-230.389527 49.335939-45.891732 118.220081-68.837598 206.512795-68.837599 41.982092 0 81.916277 4.933594 120.174901 14.800782 38.025908 9.913731 81.730103 27.04168 130.926412 51.383846v93.365938H3328.779601z"  horiz-adv-x="3909" />

    
    <glyph glyph-name="line-arrow" unicode="&#58898;" d="M2469.25056802 305.77295205999997l-486.66000366 486.66000366-81.08103275-81.16793632 405.5789709-405.49206734H511.05237828v-115.92936516h2074.12755489z"  horiz-adv-x="3072" />

    
    <glyph glyph-name="line-arrow-s" unicode="&#58901;" d="M2354.29530379 210.92271007l-427.72851884 427.72851883L1855.22777841 567.31222237l356.38951231-356.3895123H633.146296V109.03166646h1822.88729119z"  horiz-adv-x="3072" />

    
    <glyph glyph-name="like" unicode="&#58902;" d="M683.0592-124.26239999999996H552.0384c-67.4304 0-122.368 23.9616-170.9056 45.1072-37.5296 16.384-69.9392 30.5152-100.352 30.5152H131.8912a38.6048 38.6048 0 0 0-30.0544 14.1824C96.6656-28.006399999999985 51.2 32.35839999999996 51.2 178.17600000000004c0 142.7456 39.5264 237.4144 41.216 241.408a38.4 38.4 0 0 0 31.0272 22.9376c1.4848 0.2048 151.04 18.0224 223.3344 89.6C415.9488 600.3712 461.7216 695.9616 475.648 801.28A65.024 65.024 0 0 0 534.528 858.4704c51.712 3.584 120.6272-33.1264 128.7168-150.1184 4.7104-67.3792-10.0352-142.1312-22.2208-190.0032h136.9088c98.56 0 157.44-61.6448 157.44-121.2416 0-20.8384-3.072-37.8368-8.192-51.5584 26.5216-18.6368 45.6704-48.9472 45.6704-91.8016 0-45.568-20.6848-75.3664-46.9504-93.0816 5.12-13.1584 8.192-29.0816 7.936-48.384-0.512-42.1888-20.992-69.632-45.6704-86.528 3.6864-10.0864 5.7856-21.76 5.7856-35.4304 0-114.5856-158.72-114.5856-210.8416-114.5856zM154.2656 26.93119999999999h126.5152c46.6944 0 89.7536-18.7904 131.4304-36.9664 43.6224-18.944 88.576-38.6048 139.8272-38.6048h131.072c61.1328 0 133.9904 6.7072 133.9904 38.9632 0 5.632-1.024 12.0832-3.9424 13.1072-19.6608-1.7408-33.4336 15.104-34.5088 35.4304-1.0752 20.224 18.5856 37.2736 39.1168 39.1168 8.8064 1.024 38.912 6.5536 39.2192 35.2768 0.256 19.7632-5.4272 26.4704-7.68 27.3408a36.4544 36.4544 0 0 0-31.1808 39.6288c1.3312 19.712 19.4048 34.7136 39.424 34.9184 17.3056 0.6656 38.4512 7.8336 38.4512 38.6048 0 30.5664-22.016 37.888-40.448 38.5536a38.4 38.4 0 0 0-37.2224 38.7072 37.7856 37.7856 0 0 0 35.0208 36.8128c1.5872 2.56 5.1712 10.3936 5.1712 29.2864 0 15.4112-21.4016 47.36-77.7216 47.36H588.8c-12.288 0-22.4256 4.096-29.696 13.9264a37.376 37.376 0 0 0-5.2736 34.048c0.3584 1.1776 39.168 118.0672 32.768 210.7392-3.4816 50.5344-20.224 73.1136-36.096 78.6432-17.7152-117.9136-70.4512-225.1776-149.3504-303.1552-72.0384-71.2704-193.1776-98.816-244.736-107.6736-10.24-32.0512-28.416-101.632-28.416-192.8704 0-81.408 16.0768-129.1776 26.2656-151.1936z"  horiz-adv-x="1024" />

    
    <glyph glyph-name="like-fill" unicode="&#58903;" d="M683.0592-124.2624H552.0384c-67.4304 0-122.368 23.9616-170.9056 45.1072-37.5296 16.384-69.9392 30.5152-100.352 30.5152H131.8912a38.6048 38.6048 0 0 0-30.0544 14.1824C96.6656-28.0064 51.2 32.3584 51.2 178.176c0 142.7456 39.5264 237.4144 41.216 241.408a38.4 38.4 0 0 0 31.0272 22.9376c1.4848 0.2048 151.04 18.0224 223.3344 89.6C415.9488 600.3712 461.7216 695.9616 475.648 801.28A65.024 65.024 0 0 0 534.528 858.4704c51.712 3.584 120.6272-33.1264 128.7168-150.1184 4.7104-67.3792-10.0352-142.1312-22.2208-190.0032h136.9088c98.56 0 157.44-61.6448 157.44-121.2416 0-20.8384-3.072-37.8368-8.192-51.5584 26.5216-18.6368 45.6704-48.9472 45.6704-91.8016 0-45.568-20.6848-75.3664-46.9504-93.0816 5.12-13.1584 8.192-29.0816 7.936-48.384-0.512-42.1888-20.992-69.632-45.6704-86.528 3.6864-10.0864 5.7856-21.76 5.7856-35.4304 0-114.5856-158.72-114.5856-210.8416-114.5856z"  horiz-adv-x="1024" />

    
    <glyph glyph-name="smg-yicai-logo" unicode="&#58907;" d="M5101.151596 529.83467h206.07646v-19.089188c0-10.846129 0-16.486117-5.639988-20.390723a50.759886 50.759886 0 0 0-28.199936-4.338452h-173.538071z m227.768718-124.513566a83.298274 83.298274 0 0 1 62.039861 23.42764 72.88599 72.88599 0 0 1 22.993794 52.929112V604.456041H4685.527916v-74.621371h311.934683v-43.384517H4685.527916v-199.134937h164.427323l-19.089188-78.092132a36.442995 36.442995 0 0 0-14.750736-21.258414 62.03986 62.03986 0 0 0-26.030711-5.206142H4685.527916v-86.769035h130.153554a196.965711 196.965711 0 0 1 55.098337 4.338452 57.701409 57.701409 0 0 1 29.501472 17.787652 101.519772 101.519772 0 0 1 17.353807 30.369162l32.538389 127.116637a104.556688 104.556688 0 0 1 0 69.415229c-12.147665 22.126104-43.384518 20.824569-43.384518 20.824568h-115.402817v40.347602h208.245685v-310.633147h103.688997v190.891878h206.076459V201.847716a21.692259 21.692259 0 0 0-5.639987-16.919962 35.141459 35.141459 0 0 0-20.824568-4.338452h-105.424379l-23.427639-86.769035h168.331929c50.759886 0 69.415228 9.544594 82.864429 28.199936a93.276713 93.276713 0 0 1 10.846129 54.230648v188.722652h-312.802373v40.347601zM5071.650124 712.917335a18.221497 18.221497 0 0 0-14.750736-12.147665h-39.479911a72.88599 72.88599 0 0 0-24.29533 0c-5.206142 0-9.110749 6.073832-15.184581 16.919962l-9.978439 23.861485h69.849073l21.692259 78.959822h-322.346967l-28.633781-108.895139a16.052272 16.052272 0 0 0-12.147665-12.581511H4685.527916v-77.658286h36.87684a118.439733 118.439733 0 0 1 38.178376 4.772297 86.769035 86.769035 0 0 1 23.42764 15.184581 68.547538 68.547538 0 0 1 14.750736 19.089188 303.691624 303.691624 0 0 1 12.147665 40.781446l9.544593 43.384518h43.384518l29.501472-72.88599a86.769035 86.769035 0 0 1 27.766092-35.575304c13.449201-9.544594 22.993794-14.316891 68.981383-13.883046h95.012094a118.439733 118.439733 0 0 1 38.178375 4.772297 86.769035 86.769035 0 0 1 23.42764 15.184581 68.547538 68.547538 0 0 1 14.750736 19.089188 303.691624 303.691624 0 0 1 12.147665 40.781447l9.978439 43.384517h43.384518l29.935317-72.885989a82.864429 82.864429 0 0 1 27.766091-35.575305c13.449201-9.544594 24.29533-14.316891 69.849074-13.883046h37.310685l20.824569 78.525978h-32.104543a84.165964 84.165964 0 0 0-23.861485 2.603071c-5.206142 0-9.110749 6.507678-14.750736 17.353807l-10.412285 23.861484h59.002945l22.126104 78.959823h-310.633147zM7673.853498 821.812475h-445.125152l-52.061421-89.805952h350.546903l-182.214974-167.464239a66.378312 66.378312 0 0 0-21.692259-15.618426 124.947411 124.947411 0 0 0-43.384518-3.036916h-53.796802l-52.929111-86.769036h147.941205a130.153553 130.153553 0 0 1 97.615165 34.273769l39.913756 38.612221 34.707615-37.310685a132.756624 132.756624 0 0 1 36.442995-30.803008 207.377995 207.377995 0 0 1 78.959822-6.941523h66.378312v86.769036h-49.892195a180.479594 180.479594 0 0 0-36.876841 2.169226 51.193731 51.193731 0 0 0-20.390723 15.618426l-39.046066 38.178376 146.205825 132.322779zM6946.728981 283.410609a32.972233 32.972233 0 0 1 8.243058-22.993794 36.87684 36.87684 0 0 1 22.993795-6.507678h125.815101l52.061422 86.769036h-98.916701l202.171853 338.399238h-114.101282l-61.606015-104.122842h-48.156815l145.77198 247.291751h-115.402817l-142.301219-245.122525v-59.870635a35.141459 35.141459 0 0 1 8.243059-22.559949 40.781447 40.781447 0 0 1 24.29533-6.941523h75.055215l-84.165964-146.205825zM7249.552915 404.887259a48.59066 48.59066 0 0 1-15.618426-15.184581l-17.787653-27.766091-96.313629-163.125787s-10.846129-19.089188-52.495267-19.089188h-98.9167l-22.993794-86.769035h180.045748a101.519772 101.519772 0 0 1 81.996739 58.569099l86.769035 143.602753 6.507678 10.412285a47.289124 47.289124 0 0 0 14.316891 13.4492 52.061421 52.061421 0 0 0 19.523033 3.036916H7418.752534v-144.904289h-147.073515l-51.193731-83.298274h453.36821V180.15545699999996h-146.63967v144.470444h148.808896v84.59981h-400.439098a57.701409 57.701409 0 0 1-23.861485-4.338452M6737.18176 178.853922h-157.919644l-22.559949-84.59981h220.827195c50.326041 0 68.981383 9.544594 82.430584 28.199937a93.710558 93.710558 0 0 1 12.58151 54.664492V722.461929h39.913756l55.966028 97.615165h-96.313629V896l-104.122843-37.74453v-36.442995h-202.605698V722.461929h101.953617l-92.842868-387.423743a32.538388 32.538388 0 0 0-29.501472-23.861485h-56.833718l-22.55995-86.769036h96.747475a98.482855 98.482855 0 0 1 99.784391 63.341396L6767.984768 722.461929v-513.238845a28.633782 28.633782 0 0 0-29.501472-30.369162M6142.813867 821.812475V284.27829999999994l104.556688 30.369162V731.138833h173.104226v-381.783757l104.556688 36.442995V821.812475h-382.217602zM6286.850466 679.077411v-260.307106a133.190469 133.190469 0 0 0-4.338452-33.406079c-2.603071-11.71382-50.326041-186.987271-50.32604-186.987271-3.470761-9.978439-4.338452-12.58151-9.544594-16.486117a106.292068 106.292068 0 0 0-32.538388-2.603071h-24.29533l-22.993795-86.769036h86.769036a73.319835 73.319835 0 0 1 76.356751 57.701409l29.935317 110.63052 29.935317-110.63052a74.187525 74.187525 0 0 1 76.790597-57.701409h65.076777l22.559949 86.769036h-51.193731a106.292068 106.292068 0 0 0-32.538389 2.603071c-5.206142 3.904607-6.507678 6.507678-9.544593 16.486117 0 0-47.72297 173.538071-50.759886 186.987271a155.316574 155.316574 0 0 0-3.904607 33.406079V679.077411zM4742.361635 21.80196699999999l52.495266-64.642931 53.362957 64.642931h55.532183l-81.129049-101.519771v-44.252208h-52.495266v44.252208L4685.527916 21.80196699999999h56.833719zM5111.997726-123.970012h48.59066v145.771979h-48.59066v-145.771979zM6142.813867-123.970012h49.024505v145.771979h-49.024505v-145.771979zM5368.834071-32.862525000000005a49.024505 49.024505 0 0 0 21.692259 47.289124 28.633782 28.633782 0 0 0 10.412284 4.772297 51.193731 51.193731 0 0 0 16.052271 2.169226h170.06731l-13.015355-49.024505h-156.618109v-48.156814h169.633464l-13.015355-48.59066h-155.750419a43.384518 43.384518 0 0 0-32.538388 10.846129 43.384518 43.384518 0 0 0-16.919962 33.406079zM6580.129806-32.862525000000005a49.024505 49.024505 0 0 0 21.692259 47.289124 28.633782 28.633782 0 0 0 10.412284 4.772297 49.024505 49.024505 0 0 0 16.052272 2.169226h170.067309l-13.015355-49.024505h-156.618109v-48.156814h169.633464l-13.015355-48.59066h-155.750419a43.384518 43.384518 0 0 0-32.538388 10.846129 43.384518 43.384518 0 0 0-16.919962 33.406079zM6069.927877 896h-583.087918v-728.426053l124.079721 457.272817-51.193731 52.495267 510.201928 144.470444-143.602753-529.291117-439.485165-124.947411v-73.319835h583.087918V896zM5833.048411-51.95171300000004v43.384518l36.009149-20.824568z m60.738324 40.347602l-6.507677 11.71382-3.036916 5.206142a38.612221 38.612221 0 0 1-35.14146 16.486116 38.178376 38.178376 0 0 1-34.707614-16.486116l-2.603071-4.338452-6.507678-12.147665-65.076776-112.799746h49.45835l22.559949 40.781447h74.187525l22.993795-40.781447h49.024505zM7030.4611-76.68088799999998h121.042805v50.759886h-121.042805z m-48.59066 55.098338a40.347602 40.347602 0 0 0 19.956879 33.839924 46.421434 46.421434 0 0 0 28.633781 9.544593h123.645876a43.384518 43.384518 0 0 0 26.898401-9.110748 21.258414 21.258414 0 0 0 5.639987-5.206142 43.384518 43.384518 0 0 0 13.883046-32.538389v-54.230647a43.384518 43.384518 0 0 0-13.883046-31.236853 43.384518 43.384518 0 0 0-32.972233-13.4492H7028.291874a43.384518 43.384518 0 0 0-35.141459 15.618426 43.384518 43.384518 0 0 0-11.71382 31.670698zM7527.213828-127.87461900000005a45.987589 45.987589 0 0 0-40.781446 19.089188l-54.664493 90.239797v-105.424378h-49.45835V-15.074873000000025a34.273769 34.273769 0 0 0 23.42764 31.236853 69.415228 69.415228 0 0 0 29.067627 4.772297 53.362957 53.362957 0 0 0 37.74453-16.052271 72.88599 72.88599 0 0 0 11.279975-15.184582l43.384517-72.018299 47.72297 76.356751a38.178376 38.178376 0 0 0 9.544594 12.58151 55.966028 55.966028 0 0 0 31.670698 14.316891c30.369162 3.036916 57.701409-13.883046 57.701408-40.347601v-104.990533h-49.45835V-15.074873000000025l-56.399873-92.842868a45.553744 45.553744 0 0 0-40.781447-18.221497M6361.471837-123.970012h48.59066v48.59066h-48.59066v-48.59066zM0 236.121485h321.045431a183.51651 183.51651 0 0 1 43.384518-101.519771 200.436472 200.436472 0 0 1 156.184264-55.966028 241.217919 241.217919 0 0 1 127.984327 29.067627 81.562893 81.562893 0 0 1 40.347602 66.378312 80.695203 80.695203 0 0 1-38.178376 63.775241 503.694251 503.694251 0 0 1-178.744213 53.796802c-153.581193 28.199937-306.72854 65.944467-372.239162 112.365901a207.377995 207.377995 0 0 0-49.024505 312.802373 390.46066 390.46066 0 0 0 196.09802 106.292068A1016.933096 1016.933096 0 0 0 525.38651 852.615482c144.904289 0 255.53481-18.655343 331.457715-62.473705a353.58382 353.58382 0 0 0 173.538071-227.768718h-341.436154a124.947411 124.947411 0 0 1-49.024505 84.599809A209.547221 209.547221 0 0 1 515.841916 679.077411a377.011459 377.011459 0 0 1-153.581193-20.390723 65.076777 65.076777 0 0 1-38.178375-52.061421 43.384518 43.384518 0 0 1 25.16302-40.347602 1130.600532 1130.600532 0 0 1 161.390406-33.839924 1704.577702 1704.577702 0 0 0 328.854644-81.562893 333.626941 333.626941 0 0 0 144.036599-101.953617 222.996421 222.996421 0 0 0 43.384518-136.661231 256.836345 256.836345 0 0 0-59.870635-163.993477 368.768401 368.768401 0 0 0-168.331928-113.233591 824.305837 824.305837 0 0 0-272.454772-38.612221C335.362322-101.84390800000006 201.738008-71.47474599999998 130.153553-11.17026599999997a370.503782 370.503782 0 0 0-130.153553 247.291751zM1112.81288 852.615482h462.478959l173.538071-545.343388L1927.574123 852.615482H2386.148476v-954.45939h-285.470127V567.579201L1878.983463-101.84390800000006h-260.307106L1400.018388 567.579201V-101.84390800000006h-287.205508z m1990.047829-603.912487v191.325724H3644.29949v-393.497576a1226.480317 1226.480317 0 0 0-275.057842-117.138198 1127.997461 1127.997461 0 0 0-283.300901-31.236853 821.702766 821.702766 0 0 0-328.420799 55.966028A431.242106 431.242106 0 0 0 2559.686547 120.71866799999998 464.648185 464.648185 0 0 0 2491.139009 375.38578700000005a452.934365 452.934365 0 0 0 76.356751 262.910178A463.780495 463.780495 0 0 0 2791.359872 809.230965a867.690355 867.690355 0 0 0 309.331611 43.384517 1070.296053 1070.296053 0 0 0 280.69783-27.332246 441.654391 441.654391 0 0 0 158.35349-86.769035A330.590025 330.590025 0 0 0 3644.29949 542.8500260000001h-307.59623A167.030393 167.030393 0 0 1 3253.838831 621.3760030000001a361.826878 361.826878 0 0 1-149.242741 29.501472 287.639353 287.639353 0 0 1-195.664175-65.510622c-43.384518-43.384518-68.113693-112.365901-68.113693-206.510305s22.993794-173.538071 68.981383-216.922588a273.322462 273.322462 0 0 1 192.627259-64.209086 449.463604 449.463604 0 0 1 113.233591 17.353807 629.943198 629.943198 0 0 1 122.34434 48.156814v86.769036z"  horiz-adv-x="7676" />

    
    <glyph glyph-name="flag" unicode="&#58908;" d="M136.533333 896h750.933334a68.266667 68.266667 0 0 0 68.266666-68.266667v-547.498666a136.533333 136.533333 0 0 0-52.906666-107.861334L556.8512-95.914667a68.266667 68.266667 0 0 0-83.285333-0.273066L122.0608 172.373333A136.533333 136.533333 0 0 0 68.266667 280.917333V827.733333a68.266667 68.266667 0 0 0 68.266666 68.266667z"  horiz-adv-x="1024" />

    
    <glyph glyph-name="cbndata-logo" unicode="&#58909;" d="M190.01344 340.612741c-56.547556 0-102.968889 20.745481-139.226074 57.799111-52.224 53.399704-50.820741 119.390815-50.820741 210.602667 0 91.173926-1.403259 157.165037 50.820741 210.526814C87.044551 856.632889 133.465884 877.416296 190.01344 877.416296c96.44563 0 171.880296-56.357926 190.008889-166.836148H277.774033c-10.126222 42.249481-36.257185 74.903704-87.002074 74.903704-27.572148 0-50.062222-10.391704-64.587852-27.458371-19.569778-22.224593-25.372444-47.407407-25.372445-148.973037 0-101.603556 5.802667-126.824296 25.410371-149.048888 14.487704-17.066667 36.977778-27.420444 64.549926-27.420445 50.744889 0 76.875852 32.616296 87.002074 74.865778h102.286222c-18.128593-110.478222-94.283852-166.798222-190.008889-166.798222z m482.986667 226.11437h-105.168593v-129.744592h105.168593c45.662815 0 67.432296 29.658074 67.432296 65.232592 0 35.612444-21.769481 64.512-67.432296 64.512z m-6.52326 214.281482h-98.645333v-121.590519h98.607407c42.856296 0 66.74963 24.424296 66.74963 60.795259 0 36.295111-23.893333 60.795259-66.74963 60.79526z m16.687408-435.958519h-216.177778V872.941037h207.454815c100.807111 0 159.55437-57.837037 159.55437-148.29037 0-58.55763-37.69837-96.369778-63.829333-108.999111 31.213037-14.791111 71.073185-48.165926 71.073185-118.632297 0-98.607407-65.991111-151.969185-158.075259-151.969185z m260.209778 0V554.856296h100.503703v-209.806222h-100.503703zM1240.561588 663.134815V872.941037h100.503704V663.134815h-100.503704zM1051.083662 872.941037l292.257185-527.928889h-105.168592L946.74944 872.978963h104.296296z m666.055111-124.548741c-17.408 21.504-40.618667 32.616296-75.434666 32.616297H1565.586773v-343.988149h76.15526c34.816 0 58.026667 11.07437 75.434666 32.616297 18.849185 23.703704 21.769481 61.515852 21.769482 141.577481 0 80.06163-2.920296 113.436444-21.769482 137.178074z m70.352593-352.938666c-34.057481-34.853926-82.678519-50.403556-136.343704-50.403556H1464.70381V872.941037h186.405926c53.665185 0 102.286222-15.54963 136.343704-50.441481 58.026667-59.278222 52.224-131.982222 52.224-211.247408 0-79.378963 5.802667-156.48237-52.224-215.798518z m384.341333 129.782518L2108.686033 717.255111 2043.45344 525.236148l-28.292741-86.736592-31.213037-93.449482H1878.854921L2066.664107 872.941037h79.037629l188.567704-527.890963h-105.168593l-30.454518 93.449482-26.81363 86.736592z m379.941926 255.772445v-435.958519h-100.807111V781.008593h-134.902518V872.941037h370.612148v-91.932444h-134.902519z m409.713778-255.772445l-63.108741 192.018963-65.270518-192.018963-28.254815-86.736592-31.213037-93.449482H2668.472699L2856.31981 872.941037h79.075556l188.567704-527.890963h-105.168593l-30.454518 93.449482-26.851556 86.736592zM165.664996 28.141037H233.628255v27.306667h-67.887408v-27.306667z m18.735407 126.369185l20.48-5.840592c-3.034074-7.35763-6.257778-14.52563-9.671111-21.504h86.357333v-18.280297H222.515959c6.219852-6.97837 12.401778-13.918815 18.432-20.897185l-15.322075-10.467555a1466.823111 1466.823111 0 0 1-22.452148 26.43437l7.092148 4.93037h-24.689777c-6.447407-10.998519-13.274074-21.69363-20.48-31.933629l-18.469926 9.291852c15.54963 20.897185 28.141037 43.652741 37.774222 68.266666z m-114.157037-170.81837h74.107259v26.168889h-70.162963l-3.982222-26.168889z m4.209778 170.514963l20.745481-5.840593c-3.413333-7.35763-7.092148-14.411852-11.07437-21.200592h73.576296v-18.280297H107.410773l17.370074-21.200592-15.663407-10.42963-21.31437 27.268741 6.561185 4.361481h-21.314371c-9.291852-13.918815-19.342222-27.003259-30.113185-39.215407l-17.332148 12.212148a286.795852 286.795852 0 0 1 48.848593 72.324741z m-18.469926-126.065778h88.367407v27.306667H55.755662v18.280296h198.314667v-63.867259h-88.367408v-26.168889h103.158519c-1.327407-15.284148-2.958222-30.378667-4.854519-45.283556a47.028148 47.028148 0 0 0-3.678814-13.653333 19.342222 19.342222 0 0 0-5.423408-6.409482 28.596148 28.596148 0 0 0-10.770963-5.195851c-5.30963-1.137778-10.619259-1.744593-15.928889-1.744593h-36.408888l-3.640889 19.152593h34.929777c3.223704-0.18963 6.371556 0 9.40563 0.606814 2.275556 0.379259 4.361481 1.137778 6.219852 2.275556a16.497778 16.497778 0 0 1 5.12 10.770963l2.275555 21.504h-80.402963v-76.98963h-21.31437V-50.251852a241.208889 241.208889 0 0 0-41.718518-28.444444c-21.617778-10.808889-43.880296-20.214519-66.787556-28.178963l-11.07437 20.062815a492.923259 492.923259 0 0 1 61.06074 22.641777 211.588741 211.588741 0 0 1 48.014223 29.923556H46.046625l9.936593 62.426074z m281.296592-10.998518v24.651851h260.247704v-24.651851H337.27981z m511.696593 56.888888h-69.632v20.897186h77.293037v55.751111h20.745481v-55.751111h32.95763v-20.85926h-32.95763v-142.032592c0-6.030222-0.758519-11.832889-2.275555-17.445926a24.500148 24.500148 0 0 0-4.551111-8.419556 22.528 22.528 0 0 0-11.377778-6.371555c-6.219852-1.403259-12.515556-2.048-18.735407-2.048h-30.72l-4.513186 21.504h28.975408c3.982222-0.227556 7.850667 0.075852 11.643259 0.83437a19.911111 19.911111 0 0 1 5.688889 2.654815 14.032593 14.032593 0 0 1 3.982222 6.637037c0.758519 3.527111 1.137778 7.205926 1.137778 11.036444v104.561778c-9.102222-18.394074-19.721481-35.65037-31.819852-51.693037a420.977778 420.977778 0 0 0-49.455407-53.096296l-14.487704 16.801185a347.515259 347.515259 0 0 1 88.101926 117.039407z m-82.981926 59.278223v-164.674371h-19.342222v143.73926h-60.757334v-146.962963h-19.342222V133.30963h99.441778z m-86.660741-201.576297c5.499259 5.992296 10.42963 12.515556 14.791111 19.456 4.93037 9.481481 8.343704 19.569778 10.24 30.189037 1.896296 13.577481 2.844444 27.192889 2.844445 40.96v73.500445h18.432v-78.734222c0.18963-16.649481-1.137778-32.995556-3.982222-49.076149 19.152593-18.204444 38.191407-36.484741 57.116444-54.878814l-15.056593-15.701334c-16.308148 16.687407-32.692148 33.223111-49.152 49.682963a113.170963 113.170963 0 0 0-17.863111-26.43437c-10.619259-10.846815-21.997037-20.897185-34.133333-30.189037l-14.487704 15.36c10.998519 7.964444 21.428148 16.57363 31.250963 25.865481z m440.69926 136.533334c10.202074 7.130074 19.873185 14.980741 28.975407 23.514074 6.068148 5.764741 11.719111 12.060444 17.028741 18.849185h-96.331852v20.897185h124.73837v-19.456c-11.377778-15.511704-24.045037-29.430519-38.077629-41.832296 22.907259-12.781037 45.852444-25.713778 68.759703-38.874074l-12.212148-18.887111a3599.777185 3599.777185 0 0 1-73.310815 43.84237 342.622815 342.622815 0 0 0-75.017481-44.145778l-11.074371 19.190519a385.327407 385.327407 0 0 1 66.484149 36.864z m84.954074-66.522074v-20.66963h-56.850963v-56.623407h72.438518v-20.593778h-167.632592v20.593778h74.714074v56.623407h-56.50963v20.66963h133.802667z m-225.886815-7.850667a27.382519 27.382519 0 0 1 5.688889 5.802667c11.757037 15.094519 22.793481 30.871704 33.223111 47.331555l-37.508741-2.313481c-4.551111-0.568889-8.874667-1.137778-13.084444-1.744593l-4.816593 19.721482a19.304296 19.304296 0 0 1 10.808889 7.585185 342.091852 342.091852 0 0 1 23.589926 38.039703c7.205926 13.349926 13.805037 27.003259 19.873185 40.96l18.735407-7.850666a447.146667 447.146667 0 0 0-42.325333-76.079408l37.243259 1.744593c6.447407 10.998519 12.894815 22.148741 19.304297 33.374815l17.597629-9.291852c-18.583704-33.716148-39.291259-65.611852-62.198518-95.838815 17.445926 2.313481 34.929778 4.816593 52.565333 7.547259l0.265482-21.200592-66.180741-9.026371a234.761481 234.761481 0 0 1-17.635556-3.451259l-4.816592 20.631704c3.413333 0.948148 6.637037 2.275556 9.671111 4.058074z m-16.497778-85.409185l-2.541037 21.238518a2819.527111 2819.527111 0 0 1 88.632889 14.791111l0.303407-8.154074 0.834371-13.349926c-29.202963-4.664889-58.254222-9.481481-87.22963-14.525629z m409.713778 32.237037h65.611852v37.774222h-65.611852v-37.774222z m1.441185 126.065778h49.417481c9.291852 11.377778 18.090667 23.324444 26.434371 35.688296h-89.808593c7.774815-9.860741 15.435852-19.721481 23.021037-29.582222l-9.102222-6.106074z m4.209778-24.386371l13.653333-13.387852a521.481481 521.481481 0 0 0-34.360889-31.630222h97.46963l-34.702222 30.757926 13.653333 13.653333c18.773333-15.853037 37.243259-32.047407 55.371852-48.507259l-13.312-15.36a865.166222 865.166222 0 0 1-19.038815 17.711408v-73.765926h-103.158519V-5.878519c-6.599111-5.613037-13.274074-10.998519-19.873185-16.232296l-11.946666 15.36c19.911111 14.715259 38.684444 31.099259 56.244148 49.114074z m-16.156445 24.386371l-21.048889 27.306666 13.387852 8.38163h-75.58637V122.311111h120.718222l-12.477629 26.396445 22.452148 5.233777 15.056592-31.630222h107.406222v-19.797333h-79.265185l16.194371-9.557334c-5.878519-9.102222-12.136296-17.825185-18.773334-26.168888h62.805334v-138.505482c0-6.030222-0.758519-11.719111-2.275556-17.142518a24.196741 24.196741 0 0 0-4.551111-8.419556 25.903407 25.903407 0 0 0-11.07437-6.371556c-5.878519-1.175704-11.757037-1.782519-17.635556-1.782518h-33.261037l-3.944296 19.456h31.516444c3.602963 0 7.205926 0.493037 10.808889 1.479111a19.835259 19.835259 0 0 1 5.385482 2.616889 12.212148 12.212148 0 0 1 4.020148 6.106074c0.758519 3.26163 1.137778 6.674963 1.137777 10.164148v112.677926h-174.459259v-153.941333h-19.911111v173.70074h63.374222z m455.414519 32.540444l21.31437-9.291852a2168.756148 2168.756148 0 0 0-52.261926-116.811852l-20.48 10.770963c18.773333 37.546667 35.877926 76.003556 51.427556 115.294815z m-198.314667 1.137778c17.445926-38.532741 34.398815-77.255111 50.858667-116.167111l-21.617778-10.164148a3677.37363 3677.37363 0 0 1-49.682963 117.039407l20.48 9.291852z m54.840889-172.828445v220.728889h22.755556v-220.728889h42.856296v220.728889h22.755555v-220.728889h82.944v-22.376296h-254.520888v22.376296h83.209481z m400.611556 92.387556c3.792593-12.781037 8.874667-24.993185 15.322074-36.598519 6.637037 12.781037 11.946667 26.206815 15.928889 40.391111 4.93037 18.735407 8.343704 37.925926 10.24 57.457778h-46.345482a209.73037 209.73037 0 0 0-4.816592-11.301926c1.706667-17.066667 4.93037-33.716148 9.671111-49.948444z m-52.830815 121.66637l14.487704-9.557333c-9.102222-13.198222-18.394074-26.055111-27.875556-38.646519l-13.918815 9.860741c9.481481 12.439704 18.583704 25.182815 27.306667 38.343111z m-27.572148-79.872c14.032593-11.226074 27.83763-22.565926 41.453037-33.943703l-11.377778-13.653334c-13.615407 11.605333-27.45837 23.021037-41.453037 34.247111l11.377778 13.349926zM1953.568996-21.807407a199.86963 199.86963 0 0 0-9.936593-18.887112l34.929778-15.663407c11.377778 9.102222 19.911111 20.631704 25.562074 34.550519h-50.555259z m-29.544297 163.84l26.396445-38.07763-14.449778-9.02637c-8.154074 12.818963-16.57363 25.41037-25.296593 37.774222l13.349926 9.291852z m7.092148-163.84h-30.113185v17.445926h38.912c3.223704 7.130074 6.295704 14.52563 9.102222 22.072888l19.607704-5.233777a224.749037 224.749037 0 0 0-6.826667-16.877037h63.943112v-16.535704c-6.637037-16.839111-16.308148-31.55437-28.975408-44.145778 9.102222-4.475259 18.280296-8.912593 27.534222-13.349926l-7.357629-12.781037c12.894815 8.722963 25.031111 18.280296 36.370963 28.747852 8.874667 8.154074 16.914963 17.142519 24.158815 27.003259a216.329481 216.329481 0 0 0-27.041186 76.98963l-7.926518-13.653333-15.36 14.487703c9.481481 15.284148 17.635556 31.478519 24.462222 48.545185 7.926519 19.152593 14.184296 38.874074 18.735407 59.202371l20.176593-3.792593c-3.413333-14.904889-7.661037-29.392593-12.781037-43.538963h80.099556v-21.504h-22.414223c-2.123852-23.969185-6.371556-47.407407-12.818963-70.238815-4.702815-17.066667-11.643259-32.95763-20.707555-47.634963 6.826667-9.709037 14.373926-18.811259 22.717629-27.306666 10.808889-10.846815 22.376296-20.821333 34.664297-29.923556l-13.349926-17.711407a336.744296 336.744296 0 0 0-33.526519 30.492444c-8.343704 8.343704-15.928889 17.332148-22.755555 27.00326-7.736889-9.481481-16.080593-18.318222-24.993185-26.434371-11.757037-10.619259-24.045037-20.707556-36.939852-30.189037l-12.515556 16.270222-0.83437-1.744592c-11.377778 6.181926-22.831407 12.09837-34.360889 17.711407-10.619259-6.788741-21.69363-12.591407-33.261037-17.445926-13.274074-5.575111-26.624-10.619259-40.049778-15.094518l-9.102222 18.280296c12.705185 4.096 25.296593 8.343704 37.812148 12.818963 8.533333 3.299556 16.839111 7.054222 24.993185 11.301926a2221.624889 2221.624889 0 0 1-43.766518 20.897185c4.93037 8.343704 9.784889 16.952889 14.487703 25.865482z m32.12326 109.226666v60.984889h19.000889v-61.022815H2036.626773v-17.711407h-54.309926v-52.868741h-19.000888v35.157334a229.831111 229.831111 0 0 0-58.254223-44.752593l-8.798815 16.877037c12.705185 6.409481 24.803556 13.956741 36.370963 22.641778 9.102222 6.788741 17.59763 14.411852 25.562075 22.945185h-55.978667v17.711407h61.060741z m398.601481-164.977778h72.438519v42.097778h-72.438519v-42.097778z m-30.947555 159.706075h107.368296v33.109333H2330.931959v-33.109333z m77.255111-24.95526v-24.082963h64.474074v-18.583703h-64.474074v-31.402667h46.042074v-93.790815h-19.911111v14.791111h-72.438519v-15.094518h-19.873185V-16.877037h46.004148v31.364741h-57.950815a319.563852 319.563852 0 0 0-8.798815-64.170667 223.990519 223.990519 0 0 0-26.168888-58.974815l-19.000889 11.036445c6.447407 10.846815 12.212148 21.997037 17.294222 33.374814 4.551111 11.264 8.154074 22.793481 10.808889 34.588445a327.68 327.68 0 0 1 4.285629 30.53037c1.327407 17.408 1.972148 34.816 1.972149 52.261926v80.782222h148.593777v-70.352592H2330.931959v-13.046519c0-5.992296-0.113778-11.832889-0.303408-17.445926h57.381926v24.120889h20.176593z m-176.165926-143.208296c3.26163 0 6.447407 0.303407 9.671111 0.910222a11.643259 11.643259 0 0 1 5.688889 2.882371 11.264 11.264 0 0 1 2.275555 3.489185 47.028148 47.028148 0 0 1 0.834371 8.988444v69.707852l-35.19526-14.791111-4.551111 21.504c13.274074 4.816593 26.510222 9.860741 39.746371 15.094518v53.741038h-34.360889v20.593777h34.360889v52.565334h20.214518v-52.565334h27.799704v-20.593777h-27.799704v-45.624889c8.495407 3.299556 17.066667 6.864593 25.524148 10.770963l2.010074-11.377778 1.706667-9.557334-29.240889-11.605333v-84.195555c0-5.044148-0.568889-10.088296-1.744592-15.132445a21.162667 21.162667 0 0 0-4.247704-7.547259 23.400296 23.400296 0 0 0-10.24-5.233778c-5.688889-0.948148-11.377778-1.479111-17.028741-1.479111h-19.911111l-3.413333 19.456h17.901037z m433.872592 87.760593h76.686223v71.414518h-76.686223v-71.414518z m-98.304 0h75.851852v71.414518h-75.851852v-71.414518z m98.304 149.541926v-56.054519h99.176297v-133.30963h-22.490074v18.014815h-76.686223v-90.339555H2643.441588v90.339555h-75.851852v-18.583704h-22.452148v133.878519H2643.441588v56.054519h22.452148z m386.389334-78.999704c16.459852-35.802074 32.654222-71.642074 48.583111-107.444148l-21.617778-9.59526c-15.322074 36.219259-31.137185 72.248889-47.407407 108.050963l20.442074 8.988445z m-101.148445 78.127407c21.617778-27.685926 42.590815-55.751111 63.070815-84.195555l-19.342222-14.260148a2224.507259 2224.507259 0 0 1-61.060741 85.105777l17.332148 13.349926z m-19.342222-57.799111v-147.228444c-0.18963-4.28563 0.18963-8.343704 1.137778-12.212148a14.222222 14.222222 0 0 1 3.147852-5.802667 14.222222 14.222222 0 0 1 7.661037-4.058074c4.171852-0.986074 8.419556-1.365333 12.781037-1.137778h33.261037c4.740741-0.227556 9.481481 0.037926 14.222222 0.83437a21.997037 21.997037 0 0 1 6.826667 2.920297 15.587556 15.587556 0 0 1 5.082074 6.97837c1.137778 3.868444 1.820444 7.888593 1.972148 12.174222 0.606815 14.14637 0.948148 28.444444 1.137778 43.008l23.324444-5.271703-2.275555-46.155852a69.025185 69.025185 0 0 0-3.678815-18.887111 30.947556 30.947556 0 0 0-6.295704-9.291852 30.72 30.72 0 0 0-13.918815-6.940445c-7.205926-1.592889-14.449778-2.351407-21.883259-2.351407h-42.856296c-7.205926 0-14.222222 0.758519-21.048889 2.351407a28.444444 28.444444 0 0 0-13.349926 7.812741 28.254815 28.254815 0 0 0-5.688889 10.164148 74.448593 74.448593 0 0 0-2.541037 21.504v151.589926h23.021037z m-62.501926-25.258667l22.755556-4.93037a822.765037 822.765037 0 0 0-34.133334-113.588148l-21.541926 7.281778c13.425778 36.219259 24.424296 73.272889 32.919704 111.23674z"  horiz-adv-x="3147" />

    
    <glyph glyph-name="yicai-logo" unicode="&#58916;" d="M408.917333 535.765333h202.496v-18.474666c0-10.666667-0.768-16.554667-5.632-20.309334-4.693333-3.456-12.330667-4.266667-27.776-4.266666l-169.088 0.298666V535.765333z m224-122.197333c25.258667 0 45.568 7.68 60.757334 22.741333 15.018667 15.104 22.613333 32.597333 22.613333 52.437334V609.237333H0v-73.472h306.688v-43.093333l-306.56-0.085333L0 296.533333h161.877333l-19.072-76.842666a34.688 34.688 0 0 0-14.464-20.821334c-4.693333-2.730667-14.933333-5.290667-25.514666-5.290666H0.128v-85.248h126.848c23.253333-0.426667 41.301333 0.512 54.186667 4.224 12.629333 3.626667 22.4 9.514667 29.226666 17.322666 6.656 8.106667 12.501333 18.133333 17.152 30.122667l31.957334 124.928s14.805333 42.922667 0.810666 68.266667c-12.117333 22.016-44.757333 20.352-44.757333 20.352h-113.493333v39.978666h204.629333V108.117333h102.229333v188.586667h202.496v-81.706667a20.949333 20.949333 0 0 0-5.632-16.384c-4.864-4.224-12.544-4.608-20.608-4.608H481.706667l-22.912-85.888h165.589333c49.664 0 67.968 9.344 81.237333 27.52 10.496 14.506667 10.794667 34.005333 10.666667 53.589334v184.32h-307.626667v40.021333h224.298667zM379.605333 715.861333a17.706667 17.706667 0 0 0-14.336-11.946666h-39.04c-10.666667 0-18.602667 0.298667-23.722666 2.133333-5.205333 1.749333-8.96 6.058667-14.890667 16.938667l-10.026667 23.381333 0.213334 0.170667h68.437333l21.589333 77.738666H50.645333l-0.128-1.024-28.458666-107.392c-2.005333-7.637333-7.893333-12.074667-11.605334-12.074666H0.128v-77.781334h35.925333c16.938667 0 29.44 1.792 37.76 4.778667 8.192 3.370667 15.786667 8.32 22.869334 14.677333 6.954667 6.4 11.818667 12.757333 14.762666 18.773334 2.688 6.186667 6.741333 19.456 11.989334 40.106666l9.429333 42.026667h43.136l29.397333-71.594667c5.973333-13.184 13.44-25.429333 27.008-34.986666 13.44-9.728 22.784-14.250667 67.882667-13.781334h93.397333c16.810667 0 29.44 1.792 37.674667 4.778667 8.106667 3.370667 15.786667 8.32 22.954667 14.677333 6.869333 6.4 11.690667 12.757333 14.762666 18.773334 2.56 6.186667 6.656 19.456 11.861334 40.106666l9.642666 42.026667h42.88l29.525334-71.594667c7.210667-14.933333 13.354667-25.429333 27.008-34.986666h0.426666c13.44-9.728 23.808-14.250667 68.736-13.781334h36.522667l20.906667 77.312h-31.829334c-10.197333 0-18.005333 0.768-23.253333 2.56-5.12 1.877333-9.130667 6.314667-14.890667 17.066667l-10.069333 23.466667 0.213333 0.128h58.069334l21.418666 77.738666H409.514667l-29.866667-108.373333zM2938.794667 823.168H2501.12l-51.114667-88.576h344.533334l-178.858667-164.352c-8.96-8.448-14.293333-12.928-21.589333-15.786667-7.253333-2.773333-17.664-2.645333-40.405334-2.645333h-53.12l-52.138666-86.4h145.493333c37.632 0 68.650667 11.562667 92.885333 34.773333l38.997334 37.674667 34.261333-36.48c10.624-11.605333 23.338667-24.746667 36.053333-30.464 16.725333-7.338667 38.016-6.826667 77.312-6.826667h65.365334V551.466667H2889.813333c-17.621333 0-29.866667 0.597333-36.138666 2.346666-6.357333 1.408-13.056 7.936-20.096 15.146667l-38.570667 37.632 143.786667 130.048V823.168zM2223.786667 293.674667s-0.298667-15.616 7.893333-22.613334c8.576-7.296 22.741333-6.570667 22.741333-6.570666h123.733334l51.2 85.973333h-97.024l198.570666 330.538667h-112.256L2358.186667 580.394667h-47.36l143.317333 242.858666h-113.621333l-139.946667-240.810666v-58.752s0.128-14.72 8.192-22.4c7.594667-7.296 23.722667-6.784 23.722667-6.784h73.813333l-82.602667-143.616v-57.173334zM2521.514667 413.141333c-8.746667-4.693333-15.445333-14.933333-15.445334-14.933333l-17.365333-27.562667h0.042667l-94.933334-160.426666s-10.538667-18.56-51.498666-18.56H2245.12l-22.869333-83.626667h172.586666l0.042667 0.085333h4.736c54.186667 0 80.512 57.344 80.512 57.344l83.498667 141.44 6.613333 10.197334s6.698667 9.685333 13.909333 13.098666c7.253333 3.541333 19.328 2.858667 19.328 2.858667h82.56v-142.250667h-144.896l-50.261333-82.090666h445.653333v83.2h-144.085333v142.250666h146.346667v83.2h-393.898667s-14.72 0.426667-23.466667-4.224M2017.877333 190.762667h-155.306666l-22.528-83.242667h217.173333c49.664 0 67.968 9.429333 81.237333 27.733333 10.368 14.506667 12.373333 33.877333 12.288 53.589334V727.04h39.338667l55.125333 96.085333h-94.72V896l-103.296-37.205333v-35.626667h-199.210666V727.04h100.053333l-91.306667-381.013333s-6.229333-23.424-29.013333-23.424l-55.936 0.170666-22.186667-83.328h95.146667c80.128 0 98.261333 62.208 98.261333 62.208l103.850667 425.386667v-506.709333s0.981333-29.610667-28.970667-29.610667M1433.130667 823.253333v-528.64l102.954666 29.738667v409.6h170.026667v-375.338667l102.997333 35.84V823.253333zM1574.997333 681.045333v-253.952c0-10.154667-1.493333-21.205333-4.266666-32.896-2.688-11.605333-49.792-183.978667-49.792-183.978666-3.114667-9.856-4.096-12.288-9.429334-15.914667-4.522667-3.072-23.125333-2.645333-32-2.645333h-23.893333l-22.485333-83.626667h78.677333l3.413333 0.085333h1.493334c65.237333 0 75.349333 56.576 75.349333 56.576l29.44 108.928 29.354667-108.928s10.197333-56.576 75.52-56.576h1.493333c0.938667 0 2.133333-0.128 3.413333-0.128h60.16l22.485334 83.626667h-50.432c-8.832 0-27.52-0.384-32 2.688-5.376 3.626667-6.314667 6.058667-9.429334 15.914667 0 0-47.146667 172.373333-49.749333 183.978666a141.738667 141.738667 0 0 0-4.266667 32.853334V681.088h-93.056zM56.064 36.138667L107.52-27.349333 159.872 36.138667h54.698667l-79.786667-99.712v-43.562667H83.413333V-63.573333L0 36.138667zM419.242667-107.093333h48.128v143.232H419.242667zM1433.130667-107.093333h48.128v143.232h-48.128zM671.829333-17.493333c0 23.765333 6.485333 36.778667 21.333334 46.378666a35.072 35.072 0 0 0 10.453333 4.736 48.64 48.64 0 0 0 15.701333 2.346667l5.76 0.170667h161.749334l-12.970667-48.085334h-153.898667v-47.189333h166.826667l-12.928-48h-153.173333c-14.378667 0-22.997333 2.986667-32.213334 10.837333-11.946667 10.538667-16.64 20.736-16.64 32.597334V-17.493333zM1863.082667-17.493333c0 23.765333 6.528 36.778667 21.290666 46.378666a34.389333 34.389333 0 0 0 10.496 4.736c4.778667 1.536 7.808 2.133333 15.701334 2.346667l5.76 0.170667H2078.08L2065.066667-11.946667h-153.984v-47.189333h166.954666L2065.066667-107.093333h-153.173334c-14.421333 0-22.997333 2.986667-32.213333 10.837333-12.032 10.538667-16.64 20.736-16.64 32.597333V-17.493333zM1361.493333 896H788.266667v-716.544l121.898666 450.133333-50.304 51.413334L1361.493333 823.168l-141.098666-520.874667-432.128-122.837333v-71.68H1361.493333zM1128.533333-36.138667v40.704l35.413334-20.522666-35.413334-20.181334z m59.648 39.424l-6.314666 11.733334c-0.981333 1.664-2.133333 3.285333-3.2 4.906666-10.410667 16.384-27.093333 16.213333-34.133334 16.213334-7.381333 0-23.509333 0-34.474666-16.213334-0.853333-1.194667-1.621333-2.688-2.56-3.968l-6.186667-11.946666-64-111.146667h48.554667l22.314666 40.149333h73.002667l22.442667-40.106666h48.085333l-63.530667 110.378666zM2306.304-60.586667h118.869333v49.92h-118.869333v-49.92z m-48 54.058667c0 12.501333 5.632 23.04 19.797333 33.493333 8.021333 6.186667 15.530667 8.576 27.861334 9.173334H2427.818667c10.410667 0 18.474667-2.816 26.453333-9.045334 1.92-1.28 3.626667-2.986667 5.290667-4.992 10.24-11.221333 13.653333-19.712 13.653333-31.786666v-53.333334c0-12.16-3.712-20.608-13.482667-30.634666a41.813333 41.813333 0 0 0-32.512-13.482667H2304.426667c-15.488 0-24.874667 4.138667-34.773334 15.36-8.064 8.789333-11.392 17.92-11.392 31.018667v54.229333zM2794.752-110.848c-29.653333 0-40.106667 18.645333-40.106667 18.645333l-54.016 88.96v-103.978666h-48.64V0.426667c0 12.842667 8.021333 24.064 23.210667 30.677333 8.362667 3.413333 18.090667 5.248 28.586667 4.778667 14.933333-0.597333 25.728-5.205333 36.992-15.786667 4.138667-4.096 7.850667-8.874667 11.221333-14.890667l42.794667-70.741333 46.933333 74.922667a40.96 40.96 0 0 0 9.344 12.373333c8.746667 8.192 18.56 12.373333 31.018667 13.909333 30.08 3.285333 56.746667-13.482667 56.746666-39.466666v-103.466667h-48.64v105.685333l-55.594666-91.434666s-10.24-17.877333-39.850667-17.877334M1648.128-107.093333h48.085333v47.957333h-48.085333z"  horiz-adv-x="2944" />

    
    <glyph glyph-name="icon_share_defaultx" unicode="&#58921;" d="M265.508571 168.886857l139.739429-141.348571c6.217143-6.253714 13.897143-9.252571 21.540571-9.252572h310.016c16.822857 0 30.683429 14.043429 30.683429 31.049143V543.122286a31.049143 31.049143 0 0 1-30.72 31.049143h-194.889143V646.729143l24.502857-22.674286c12.251429-10.934857 32.182857-10.934857 42.934857 1.462857 10.752 12.397714 10.752 32.548571-1.462857 43.446857l-76.763428 71.497143c-4.571429 4.608-21.540571 15.213714-42.934857 0L411.428571 668.964571a31.670857 31.670857 0 0 1-1.462857-43.446857 30.793143 30.793143 0 0 1 42.934857-1.462857l27.611429 25.636572v-75.337143h-194.925714a29.44 29.44 0 0 1-29.220572-29.622857v-354.011429a30.134857 30.134857 0 0 1 9.142857-21.833143z m128.950858-45.531428l-57.965715 58.075428h57.965715v-58.075428z m85.906285 390.363428v-194.048c0-17.005714 13.860571-31.085714 30.683429-31.085714 16.822857 0 30.683429 14.08 30.683428 31.085714v194.048h164.205715v-433.334857h-250.221715V209.188571a31.049143 31.049143 0 0 1-30.72 31.085715H314.514286v273.298285h165.851428v0.146286z"  horiz-adv-x="1060" />

    
    <glyph glyph-name="icon_pencil_defaultx" unicode="&#58922;" d="M834.157714 658.066286L785.261714 706.925714c-28.269714 26.806857-64.621714 42.605714-103.972571 42.605715-39.497143 0-75.666286-14.153143-103.972572-42.605715L179.126857 307.419429c-6.4-5.668571-12.653714-19.821714-12.361143-26.989715l-20.114285-227.766857c-3.876571-28.598857 23.698286-33.060571 31.597714-33.060571h1.609143l234.788571 18.907428c8.923429 0.621714 18.029714 7.460571 21.467429 11.922286l397.897143 399.542857c56.722286 56.758857 56.722286 151.332571 0.146285 208.091429zM420.571429 119.990857c-50.066286 91.062857-126.171429 144.822857-172.507429 171.154286l313.270857 311.808 171.776-170.276572-312.539428-312.685714z m-196.498286 115.602286c39.204571-22.784 100.132571-67.474286 140.8-140.032l-153.6-12.946286 12.8 152.978286z m567.442286 255.341714l-15.798858-15.798857-171.885714 171.885714 15.725714 15.835429c17.298286 15.762286 37.888 25.161143 61.549715 25.161143 23.698286 0 45.714286-9.398857 61.513143-25.161143l48.896-48.896c33.060571-34.706286 33.060571-89.819429 0-123.026286z"  horiz-adv-x="1024" />

    
    <glyph glyph-name="icon_service_defaultx" unicode="&#58925;" d="M804.425143 435.053714C804.425143 588.361143 673.426286 713.142857 512.438857 713.142857c-160.914286 0-291.949714-124.928-291.949714-279.698286v-139.702857c0-15.030857 12.617143-28.525714 29.952-28.525714h63.049143v-14.994286c0-15.067429 12.617143-28.525714 29.988571-28.525714 17.298286 0 29.915429 13.458286 29.915429 28.525714v97.682286c0 15.067429-12.617143 28.525714-29.952 28.525714-15.798857 0-29.952-12.032-29.952-28.525714v-25.490286h-33.133715v111.177143c0 121.782857 104.118857 220.891429 231.936 220.891429 127.817143 0 231.936-99.108571 231.936-220.891429v-111.177143h-33.133714v25.490286c0 15.067429-12.617143 28.525714-29.952 28.525714-15.798857 0-29.915429-12.032-29.915428-28.525714v-97.718857c0-15.030857 12.617143-28.525714 29.915428-28.525714 17.334857 0 29.988571 13.494857 29.988572 28.525714v15.067428h20.626285L693.76 151.04c-12.617143-37.668571-33.133714-75.154286-145.115429-75.154286-15.835429 0-29.988571-11.995429-29.988571-28.525714 0-15.030857 12.653714-28.525714 29.988571-28.525714 116.699429 0 178.249143 34.633143 203.483429 115.712 0 0 52.150857 146.066286 52.150857 160.804571v139.702857h0.146286z"  horiz-adv-x="1024" />

    
    <glyph glyph-name="magnifying-glass" unicode="&#58927;" d="M999.295726 7.871745l-210.623605 210.623605a420.607211 420.607211 0 0 1 76.159857 245.119541c0 58.49589-11.391979 114.559785-34.111936 167.935685a432.19119 432.19119 0 0 1-92.159827 138.239741A432.25519 432.25519 0 0 1 600.384474 861.950144 424.959203 424.959203 0 0 1 432.384789 895.99808c-58.55989 0-114.559785-11.391979-167.935685-34.111936a432.19119 432.19119 0 0 1-138.239741-92.159827 432.25519 432.25519 0 0 1-92.159827-138.175741A424.895203 424.895203 0 0 1 0.0016 463.614891c0-58.55989 11.391979-114.559785 34.111936-167.999685a432.19119 432.19119 0 0 1 92.159827-138.239741 432.319189 432.319189 0 0 1 138.175741-92.095827 424.959203 424.959203 0 0 1 167.935685-34.111936 420.671211 420.671211 0 0 1 245.119541 76.159857l210.623605-209.983607c14.719972-15.615971 33.151938-23.359956 55.295896-23.359956 21.31196 0 39.679926 7.743985 55.295896 23.359956a75.519858 75.519858 0 0 1 23.295957 55.231897c0 21.759959-7.551986 40.127925-22.719958 55.295896z m-372.479301 261.31151c-53.887899-53.823899-118.655778-80.767849-194.431636-80.767848-75.711858 0-140.543736 26.943949-194.367635 80.767848-53.823899 53.887899-80.767849 118.655778-80.767849 194.431636 0 75.711858 26.87995 140.543736 80.767849 194.367635 53.823899 53.823899 118.655778 80.767849 194.367635 80.767849 75.775858 0 140.543736-26.87995 194.431636-80.767849 53.823899-53.823899 80.767849-118.655778 80.767848-194.367635 0-75.775858-26.943949-140.543736-80.767848-194.431636z"  horiz-adv-x="1024" />

    
    <glyph glyph-name="noun_top" unicode="&#58928;" d="M466.501689 736.369778v-817.664A46.08 46.08 0 0 1 512.0128-128a46.08 46.08 0 0 1 45.511111 46.705778V736.369778L661.801244 629.191111a44.714667 44.714667 0 0 1 64.398223 0 47.672889 47.672889 0 0 1 0 66.161778L544.211911 882.346667A44.942222 44.942222 0 0 1 512.0128 896a44.942222 44.942222 0 0 1-32.199111-13.710222l-182.044445-186.936889a47.672889 47.672889 0 0 1-11.776-45.169778c4.209778-16.156444 16.497778-28.785778 32.256-33.109333a44.771556 44.771556 0 0 1 43.975112 12.117333L466.501689 736.369778z"  horiz-adv-x="1024" />

    
    <glyph glyph-name="yitianjia" unicode="&#58929;" d="M1396.51282067 423.384615c130.756923 0 235.52 105.550769 235.52 236.307693S1527.26974367 896 1396.51282067 896c-25.206154 0-49.624615-3.938462-71.68-11.027692 44.898462-63.803077 70.892308-140.996923 70.892308-225.28 0-84.283077-26.781538-160.689231-70.892308-225.28 22.055385-7.089231 46.473846-11.027692 71.68-11.027693z m-393.846154 0c130.756923 0 235.52 105.550769 235.52 236.307693S1133.42358967 896 1002.66666667 896c-130.756923 0-236.307692-105.550769-236.307692-236.307692s105.550769-236.307692 236.307692-236.307693z m521.452308-170.141538C1589.49743567 195.741538 1632.82051267 122.48615400000006 1632.82051267 29.53846199999998v-157.538462h236.307692v157.538462c0 121.304615-186.683077 196.135385-345.00923 223.704615zM1002.66666667 265.84615399999996c-157.538462 0-472.615385-78.769231-472.615385-236.307692v-157.538462h945.23077v157.538462c0 157.538462-315.076923 236.307692-472.615385 236.307692zM10.48943567 300.50461499999994l111.379693 111.379693 278.528-278.528-111.458462-111.379693zM198.892308 133.356308l445.597538 445.597538L755.869538 467.495385 310.350769 21.976615000000038z"  horiz-adv-x="1890" />

    
    <glyph glyph-name="contrast-add" unicode="&#58931;" d="M853.333333 156.444444h113.777778a56.888889 56.888889 0 0 0 0-113.777777h-113.777778v-113.777778a56.888889 56.888889 0 0 0-113.777777 0v113.777778h-113.777778a56.888889 56.888889 0 0 0 0 113.777777h113.777778v113.777778a56.888889 56.888889 0 0 0 113.777777 0v-113.777778zM398.336 440.888889a227.441778 227.441778 0 0 0-227.953778 227.555555c0 125.895111 101.831111 227.555556 227.953778 227.555556a226.816 226.816 0 0 0 227.157333-227.555556c0-125.895111-101.034667-227.555556-227.157333-227.555555z m228.352-113.095111A284.046222 284.046222 0 0 1 512 99.555556c0-64.056889 21.162667-123.107556 56.888889-170.666667H0v189.610667C0 295.253333 265.671111 384 398.222222 384c60.928 0 150.016-18.773333 228.465778-56.206222z"  horiz-adv-x="1024" />

    
    <glyph glyph-name="ic_favorite" unicode="&#58932;" d="M538.947368-92.968421l-78.147368 71.141053C183.242105 229.861053 0 395.856842 0 599.578947 0 765.574737 130.425263 896 296.421053 896 390.197895 896 480.202105 852.345263 538.947368 783.36 597.692632 852.345263 687.696842 896 781.473684 896 947.469474 896 1077.894737 765.574737 1077.894737 599.578947c0-203.722105-183.242105-369.717895-460.8-621.945263L538.947368-92.968421z"  horiz-adv-x="1077" />

    
    <glyph glyph-name="duibi" unicode="&#58933;" d="M630.153846 502.153846H393.846154V738.461538H236.307692v-236.307692H0v-157.538461h236.307692v-236.307693h157.538462V344.615385h236.307692V502.153846z m787.692308-78.769231c130.756923 0 235.52 105.550769 235.52 236.307693S1548.603077 896 1417.846154 896c-25.206154 0-49.624615-3.938462-71.68-11.027692 44.898462-63.803077 70.892308-140.996923 70.892308-225.28 0-84.283077-26.781538-160.689231-70.892308-225.28 22.055385-7.089231 46.473846-11.027692 71.68-11.027693z m-393.846154 0c130.756923 0 235.52 105.550769 235.52 236.307693S1154.756923 896 1024 896c-130.756923 0-236.307692-105.550769-236.307692-236.307692s105.550769-236.307692 236.307692-236.307693z m521.452308-170.141538C1610.830769 195.741538 1654.153846 122.486154 1654.153846 29.538462v-157.538462h236.307692v157.538462c0 121.304615-186.683077 196.135385-345.00923 223.704615zM1024 265.846154c-157.538462 0-472.615385-78.769231-472.615385-236.307692v-157.538462h945.23077v157.538462c0 157.538462-315.076923 236.307692-472.615385 236.307692z"  horiz-adv-x="1890" />

    
    <glyph glyph-name="slelect-icon" unicode="&#58934;" d="M1024 896v-860.16a163.84 163.84 0 0 0-163.84-163.84H0L1024 896z"  horiz-adv-x="1024" />

    
    <glyph glyph-name="reset" unicode="&#58935;" d="M640 864A480 480 0 0 1 160 384H0l213.312-213.312L426.688 384h-160A373.12 373.12 0 0 0 640 757.312 373.12 373.12 0 0 0 1013.312 384a373.12 373.12 0 0 0-589.824-304l-75.776-76.8A480 480 0 1 1 640 864z"  horiz-adv-x="1152" />

    
    <glyph glyph-name="icon_follow_us" unicode="&#58887;" d="M840.267483-127.872008v92.7942h-94.842072V-127.936004l94.842072 0.063996z m141.431161-0.063996c23.230548 0 42.23736 19.006812 42.23736 42.23736v50.55684h-90.87432v-92.730204l48.63696-0.063996zM371.368789 803.2058v-278.510593H92.858196V803.141804h278.446597zM421.92563 896H42.23736A42.301356 42.301356 0 0 1 0 853.76264v-379.68827c0-23.230548 19.006812-42.23736 42.23736-42.23736h379.68827c23.230548 0 42.23736 19.006812 42.23736 42.23736V853.76264A42.301356 42.301356 0 0 1 421.92563 896zM185.652397 663.950503a46.3971 46.3971 0 1 1 92.7942 0 46.3971 46.3971 0 0 1-92.7942 0zM931.141804 803.141804v-278.446597h-278.446597V803.141804h278.446597zM981.76264 896H602.010374a42.301356 42.301356 0 0 1-42.23736-42.23736v-379.68827c0-23.230548 19.006812-42.23736 42.23736-42.23736h379.752266c23.166552 0 42.173364 19.006812 42.173364 42.23736V853.76264A42.301356 42.301356 0 0 1 981.698644 896z m-236.337229-232.049497a46.3971 46.3971 0 1 1 92.7942 0 46.3971 46.3971 0 0 1-92.7942 0z m-374.120618-420.581714v-278.446597H92.858196v278.446597h278.446597z m50.620837 92.794201H42.23736A42.301356 42.301356 0 0 1 0 294.053622v-379.752266c0-23.166552 19.006812-42.173364 42.23736-42.173364h379.68827c23.230548 0 42.23736 19.006812 42.23736 42.23736V293.92563a42.301356 42.301356 0 0 1-42.23736 42.23736z m-236.273233-232.049497a46.3971 46.3971 0 1 1 92.7942 0 46.3971 46.3971 0 0 1-92.7942 0z m796.110243 232.113493h-51.83676v-185.652397h-92.794201v185.588401H602.010374a42.301356 42.301356 0 0 1-42.23736-42.173364v-379.752266c0-23.166552 19.006812-42.173364 42.23736-42.173364h50.556841v278.446597h92.858196v-92.7942H1023.936004V293.989626a42.301356 42.301356 0 0 1-42.23736 42.23736z"  horiz-adv-x="1024" />

    
    <glyph glyph-name="issue-icon" unicode="&#58936;" d="M921.6 896H102.4C46.08 896 0.512 849.92 0.512 793.6L0-128l204.8 204.8h716.8c56.32 0 102.4 46.08 102.4 102.4V793.6c0 56.32-46.08 102.4-102.4 102.4z m-358.4-614.4H460.8v102.4h102.4v-102.4z m0 204.8H460.8V691.2h102.4v-204.8z"  horiz-adv-x="1024" />

    
    <glyph glyph-name="customer-icon" unicode="&#58937;" d="M512 896a418.909091 418.909091 0 0 1-418.909091-418.909091v-325.818182c0-77.265455 62.370909-139.636364 139.636364-139.636363h139.636363v372.363636H186.181818V477.090909c0 180.130909 145.687273 325.818182 325.818182 325.818182s325.818182-145.687273 325.818182-325.818182v-93.090909h-186.181818v-372.363636h186.181818v-46.545455H512v-93.090909h279.272727c77.265455 0 139.636364 62.370909 139.636364 139.636364V477.090909a418.909091 418.909091 0 0 1-418.909091 418.909091z"  horiz-adv-x="1024" />

    
    <glyph glyph-name="ic_person" unicode="&#58938;" d="M512 384c141.44 0 256 114.56 256 256s-114.56 256-256 256-256-114.56-256-256 114.56-256 256-256z m0-128c-170.88 0-512-85.76-512-256v-128h1024v128c0 170.24-341.12 256-512 256z"  horiz-adv-x="1024" />

    
    <glyph glyph-name="yicai-logo2" unicode="&#58889;" d="M645.412571 403.894857A83.870476 83.870476 0 0 1 707.437714 427.885714a73.142857 73.142857 0 0 1 23.015619 53.443048V603.4285709999999H0v-74.898285h312.07619v-43.885715H0v-200.118857h165.010286l-19.504762-78.019047a36.08381 36.08381 0 0 0-14.823619-21.065143 58.514286 58.514286 0 0 0-26.136381-5.461334H0v-86.991238h129.511619A205.58019 205.58019 0 0 1 184.710095 96.30476199999998a61.244952 61.244952 0 0 1 29.842286 18.334476 114.688 114.688 0 0 1 17.554286 30.622476L264.679619 271.847619s15.018667 43.690667 0 69.436952c-12.288 22.625524-45.641143 20.870095-45.641143 20.870096H104.155429v41.74019H312.07619v-312.07619h104.350477v192.902095H624.152381v-83.285333a22.040381 22.040381 0 0 0-5.656381-16.774096 32.572952 32.572952 0 0 0-21.065143-4.681143h-106.105905L468.114286 92.40381000000002h168.911238c50.517333 0 69.241905 9.557333 82.70019 28.086857a90.502095 90.502095 0 0 1 10.922667 54.613333v188.025905h-314.026667v40.764952z m-228.400761 124.635429H624.152381v-19.504762c0-10.922667 0-16.969143-5.656381-20.870095a51.492571 51.492571 0 0 0-28.476952-4.291048h-172.422096zM387.169524 712.265143a18.334476 18.334476 0 0 0-14.628572-12.288h-39.009523a76.653714 76.653714 0 0 0-24.185905 2.340571c-5.461333 1.755429-9.362286 6.046476-15.213714 17.164191l-10.142477 23.990857h69.046857l22.040381 79.384381H51.687619v-1.170286l-29.257143-109.421714a15.213714 15.213714 0 0 0-11.897905-12.288H0v-79.384381h36.864a117.028571 117.028571 0 0 1 39.009524 4.87619 82.895238 82.895238 0 0 1 23.210666 15.018667 67.291429 67.291429 0 0 1 15.213715 19.504762 358.887619 358.887619 0 0 1 11.507809 40.96L136.533333 743.472762h42.910477l30.037333-73.142857a81.724952 81.724952 0 0 1 27.501714-35.693715c13.848381-9.752381 23.210667-14.433524 69.241905-14.043428h95.183238a118.198857 118.198857 0 0 1 39.009524 4.87619 85.820952 85.820952 0 0 1 23.210666 15.018667 66.121143 66.121143 0 0 1 15.018667 19.504762 310.51581 310.51581 0 0 1 12.288 40.96l9.752381 42.910476h43.690667l30.232381-73.142857a80.359619 80.359619 0 0 1 27.501714-35.693714c13.848381-9.947429 24.380952-14.433524 70.217143-14.043429h37.254095l21.260191 78.019048h-32.377905a79.969524 79.969524 0 0 0-23.79581 2.730666c-5.266286 1.950476-9.362286 6.436571-15.213714 17.359239l-10.142476 23.990857h58.514286l21.845333 79.384381h-312.076191zM2997.296762 821.686857h-446.268952l-52.272762-90.307047h351.085714L2667.861333 564.419048a69.241905 69.241905 0 0 0-22.040381-15.993905 133.997714 133.997714 0 0 0-41.350095-2.730667h-54.02819L2496.609524 456.752762h148.431238a131.072 131.072 0 0 1 94.598095 35.498667l39.009524 39.009523 35.108571-37.059047a127.171048 127.171048 0 0 1 36.668953-31.207619c17.16419-7.41181 39.009524-7.021714 78.019047-7.021715h66.706286V544.914286H2945.219048a170.081524 170.081524 0 0 0-36.864 2.535619 50.322286 50.322286 0 0 0-20.48 15.408762l-39.009524 39.009523 146.675809 132.632381zM2268.013714 281.6a34.133333 34.133333 0 0 1 8.192-23.015619 37.449143 37.449143 0 0 1 23.015619-6.631619h126.19581l51.687619 87.576381h-97.52381l202.459429 337.237333h-114.492952l-61.635048-102.790095h-48.176762l145.310476 247.905524h-115.858285l-142.774858-245.564953v-60.074666a36.668952 36.668952 0 0 1 8.387048-22.820572 39.009524 39.009524 0 0 1 24.185905-6.826666h75.288381l-84.260572-146.480762zM2571.702857 403.504762a53.052952 53.052952 0 0 1-16.579047-14.628572l-17.554286-28.086857-97.52381-163.644952s-10.727619-19.504762-52.467809-19.504762h-97.718857l-23.210667-85.430857h180.809143c55.198476 0 82.115048 58.514286 82.115047 58.514286l85.23581 144.335238 6.631619 10.337524a48.956952 48.956952 0 0 0 14.238476 13.458285 49.542095 49.542095 0 0 0 19.504762 2.730667h84.260572v-145.115429h-147.846096l-51.297524-83.675428h454.460953v85.040762H2847.695238v145.115428h149.211429V408.380952h-401.212953a56.758857 56.758857 0 0 1-23.990857-4.87619zM2058.142476 176.66438100000005h-158.573714l-22.820572-84.845714h221.379048c50.712381 0 69.436952 9.557333 82.895238 28.281904a92.062476 92.062476 0 0 1 12.483048 54.613334V723.772952h40.179809l56.173715 97.52381h-97.52381V896L2087.009524 856.990476v-35.303619H1884.745143v-97.523809h102.009905l-93.037715-388.924953A32.572952 32.572952 0 0 0 1864.070095 310.85714299999995h-57.148952l-22.430476-85.040762h97.523809c81.724952 0 100.254476 63.390476 100.254476 63.390476L2087.009524 723.772952v-516.87619a28.672 28.672 0 0 0-28.867048-30.232381zM1461.686857 821.686857v-539.111619l104.935619 30.427429V730.794667h173.592381V347.91619000000003l104.935619 36.473905V821.686857H1461.686857zM1606.217143 676.766476v-259.023238a141.214476 141.214476 0 0 0-4.291048-33.54819c-2.535619-11.897905-50.712381-187.63581-50.712381-187.63581-3.120762-10.142476-4.291048-12.678095-9.557333-16.188952a103.18019 103.18019 0 0 0-32.768-2.730667h-24.185905l-23.015619-85.430857h85.23581a74.118095 74.118095 0 0 1 76.848762 58.514286l30.037333 110.982095 29.842286-110.982095a74.313143 74.313143 0 0 1 78.019047-58.514286h66.316191l23.015619 85.430857h-52.46781a102.4 102.4 0 0 0-32.572952 2.730667c-5.461333 3.510857-6.436571 6.046476-9.557333 16.188952 0 0-48.176762 175.542857-50.907429 187.63581a152.137143 152.137143 0 0 0-4.291048 33.54819V676.766476zM57.148952 18.285713999999984l52.46781-64.755809L163.05981 18.285713999999984h55.783619l-81.334858-101.034666v-44.470858H85.040762v44.470858L0 18.285713999999984zM803.986286 18.285713999999984h48.956952v-146.285714h-48.956952zM2997.296762-127.21981000000005h-48.956952V18.285713999999984h48.956952zM1461.686857-35.74247600000001a48.956952 48.956952 0 0 0 21.650286 47.201524 31.98781 31.98781 0 0 0 10.727619 5.071238 43.885714 43.885714 0 0 0 15.993905 2.145524H1680.920381l-13.263238-49.152h-156.038095v-47.981715h170.276571l-13.263238-49.152h-156.038095a44.665905 44.665905 0 0 0-32.768 11.117715 41.935238 41.935238 0 0 0-16.969143 33.158095zM1388.544 896H803.986286v-730.843429l124.245333 459.142096-51.297524 52.467809 511.609905 144.920381-143.945143-531.114667-440.612571-125.415619v-73.142857h584.557714V896zM2347.398095-14.482286000000045l-6.436571 11.897905-3.31581 5.071238a39.009524 39.009524 0 0 1-34.913524 16.579048 39.009524 39.009524 0 0 1-35.108571-16.579048 46.616381 46.616381 0 0 0-2.535619-4.096l-6.241524-12.092952-65.340952-113.517715H2243.047619l22.625524 40.96H2340.571429l23.015619-40.96h48.956952z m-60.854857-40.179809v41.350095l36.08381-20.870095z"  horiz-adv-x="2999" />

    


  </font>
</defs>
</svg>
